<?xml version="1.0" encoding="utf-8"?>
<!-- Generator: Adobe Illustrator 16.0.4, SVG Export Plug-In . SVG Version: 6.00 Build 0)  -->
<!DOCTYPE svg PUBLIC "-//W3C//DTD SVG 1.1//EN" "http://www.w3.org/Graphics/SVG/1.1/DTD/svg11.dtd">
<svg version="1.1" xmlns="http://www.w3.org/2000/svg" xmlns:xlink="http://www.w3.org/1999/xlink" x="0px" y="0px"
	 width="866.957px" height="701.964px" viewBox="0 0 866.957 701.964" enable-background="new 0 0 866.957 701.964"
	 xml:space="preserve">
<g id="Layer_3">
	<line fill="none" stroke="#000000" stroke-width="3.2" x1="484.941" y1="594.799" x2="193.63" y2="157.716"/>
	<line fill="none" stroke="#000000" stroke-width="3.2" x1="776.594" y1="157.716" x2="776.594" y2="594.799"/>
	<path fill="none" stroke="#000000" stroke-width="3.2" d="M193.63,157.716"/>
	<line fill="none" stroke="#000000" stroke-width="3.2" x1="485.56" y1="157.716" x2="630.712" y2="596.081"/>
	<line fill="none" stroke="#000000" stroke-width="3.2" x1="584.027" y1="303.526" x2="720.515" y2="303.526"/>
	<line fill="none" stroke="#000000" stroke-width="3.2" x1="345.173" y1="303.526" x2="481.661" y2="303.526"/>
	<line fill="none" stroke="#000000" stroke-width="3.2" x1="454.197" y1="448.718" x2="534.894" y2="448.718"/>
	<line fill="none" stroke="#000000" stroke-width="3.2" x1="629.8" y1="448.718" x2="723.012" y2="448.718"/>
	<line fill="none" stroke="#000000" stroke-width="3.2" x1="544.985" y1="594.799" x2="721.347" y2="594.799"/>
	<line fill="none" stroke="#000000" stroke-width="3.2" x1="249.39" y1="157.716" x2="435.887" y2="157.716"/>
	<line fill="none" stroke="#000000" stroke-width="3.2" x1="543.172" y1="157.716" x2="710.528" y2="157.716"/>
</g>
<g id="Layer_1">
	<path d="M204.555,158.524c0,5.056-4.1,9.153-9.156,9.153c-5.056,0-9.154-4.097-9.154-9.153c0-5.055,4.098-9.156,9.154-9.156
		C200.455,149.368,204.555,153.469,204.555,158.524L204.555,158.524z M204.555,158.524"/>
	<g>
		<path d="M401.843,528.28c-1.08,1.184-2.276,2.062-3.589,2.633c-1.313,0.572-2.783,0.858-4.408,0.858
			c-2.562,0-4.542-0.592-5.939-1.774c-1.398-1.184-2.097-2.854-2.097-5.014c0-2.146,0.777-3.81,2.331-4.993
			c1.554-1.184,3.735-1.775,6.544-1.775h5.032v-1.424c0-1.561-0.468-2.776-1.404-3.647c-0.936-0.871-2.237-1.307-3.901-1.307
			c-1.509,0-2.692,0.322-3.55,0.966s-1.392,1.609-1.6,2.896h-1.853v-4.194c1.249-0.532,2.461-0.933,3.638-1.199
			c1.177-0.267,2.324-0.399,3.442-0.399c1.833,0,3.378,0.282,4.633,0.848c1.255,0.566,2.24,1.434,2.955,2.604
			c0.962-1.145,2.068-2.006,3.316-2.585c1.249-0.578,2.633-0.867,4.155-0.867c3.134,0,5.54,0.969,7.217,2.906
			c1.677,1.938,2.542,4.739,2.594,8.406H403.91v0.156c0,2.796,0.523,4.906,1.57,6.33c1.046,1.424,2.604,2.136,4.671,2.136
			c1.573,0,2.864-0.413,3.872-1.239c1.008-0.825,1.713-2.051,2.116-3.677h2.868c-0.56,2.276-1.613,3.986-3.16,5.131
			c-1.547,1.144-3.569,1.716-6.066,1.716c-1.586,0-3.052-0.296-4.398-0.888C404.037,530.292,402.857,529.424,401.843,528.28z
			 M399.716,524.691v-4.389h-4.623c-1.782,0-3.108,0.384-3.979,1.15c-0.871,0.768-1.307,1.944-1.307,3.53
			c0,1.443,0.442,2.588,1.326,3.434c0.884,0.845,2.081,1.268,3.589,1.268c1.495,0,2.702-0.461,3.618-1.385
			C399.258,527.376,399.716,526.173,399.716,524.691z M415.146,519.151c-0.078-2.419-0.588-4.242-1.531-5.472
			c-0.943-1.229-2.298-1.843-4.067-1.843c-1.651,0-2.955,0.618-3.911,1.853c-0.956,1.236-1.531,3.057-1.727,5.462H415.146z"/>
	</g>
	<g>
		<path d="M170.027,166.943h3.394v2.067h-10.416v-2.067h3.433v-16.58h-3.433v-2.087h7.022V166.943z M165.444,141.839
			c0-0.598,0.217-1.118,0.653-1.561c0.436-0.442,0.959-0.663,1.57-0.663c0.598,0,1.115,0.221,1.55,0.663
			c0.436,0.442,0.654,0.962,0.654,1.561c0,0.611-0.215,1.131-0.644,1.561c-0.429,0.429-0.949,0.644-1.56,0.644
			c-0.611,0-1.135-0.215-1.57-0.644C165.661,142.971,165.444,142.451,165.444,141.839z"/>
	</g>
	<g>
		<path d="M40.801,663.437v-4.31l1.458,0.013c0.042,1.437,0.458,2.499,1.249,3.188c0.79,0.688,1.992,1.033,3.606,1.033
			c1.504,0,2.651-0.299,3.441-0.895s1.186-1.464,1.186-2.604c0-0.913-0.239-1.614-0.716-2.104s-1.485-0.968-3.023-1.433
			l-2.497-0.747c-1.809-0.55-3.083-1.234-3.822-2.054c-0.74-0.82-1.109-1.944-1.109-3.372c0-1.605,0.57-2.853,1.711-3.739
			c1.141-0.888,2.742-1.331,4.804-1.331c0.879,0,1.842,0.095,2.89,0.285s2.164,0.467,3.347,0.83v4.031h-1.433
			c-0.144-1.335-0.589-2.301-1.337-2.896c-0.748-0.596-1.887-0.894-3.416-0.894c-1.335,0-2.352,0.272-3.049,0.817
			c-0.697,0.545-1.045,1.337-1.045,2.377c0,0.904,0.262,1.614,0.786,2.129c0.524,0.516,1.635,1.027,3.334,1.534l2.345,0.697
			c1.715,0.516,2.938,1.173,3.669,1.971c0.731,0.799,1.097,1.87,1.097,3.214c0,1.834-0.587,3.216-1.762,4.146
			s-2.924,1.394-5.248,1.394c-1.04,0-2.098-0.105-3.176-0.316C43.013,664.19,41.916,663.869,40.801,663.437z"/>
		<path d="M61.78,666.822l0.887-2.243l-5.033-12.347h-1.534v-1.356h6.199v1.356h-2.155l3.79,9.266l3.79-9.266h-2.015v-1.356h5.058
			v1.356h-1.508l-6.173,15.16c-0.423,1.048-0.892,1.765-1.407,2.148c-0.516,0.385-1.242,0.577-2.18,0.577
			c-0.397,0-0.805-0.034-1.223-0.102c-0.418-0.067-0.839-0.165-1.262-0.291v-2.573h1.192c0.051,0.574,0.196,0.986,0.437,1.235
			c0.241,0.249,0.615,0.374,1.122,0.374c0.465,0,0.838-0.129,1.122-0.387S61.467,667.599,61.78,666.822z"/>
		<path d="M84.292,653.5c0.448-0.989,1.021-1.734,1.718-2.237s1.51-0.755,2.44-0.755c1.411,0,2.463,0.438,3.156,1.312
			c0.693,0.875,1.04,2.195,1.04,3.961v7.226h2.104v1.344h-6.465v-1.344h2.028v-6.959c0-1.378-0.203-2.358-0.608-2.941
			c-0.406-0.583-1.078-0.874-2.016-0.874c-1.04,0-1.832,0.393-2.377,1.179c-0.545,0.786-0.817,1.931-0.817,3.436v6.16h2.028v1.344
			h-6.389v-1.344h2.028v-7.048c0-1.344-0.203-2.301-0.608-2.871s-1.078-0.855-2.016-0.855c-1.04,0-1.832,0.393-2.377,1.179
			c-0.545,0.786-0.817,1.931-0.817,3.436v6.16h2.028v1.344h-6.465v-1.344h2.104v-10.8h-2.231v-1.331h4.563v2.396
			c0.431-0.896,0.98-1.58,1.648-2.054c0.667-0.473,1.424-0.71,2.269-0.71c1.048,0,1.922,0.261,2.624,0.78
			C83.587,651.807,84.056,652.544,84.292,653.5z"/>
		<path d="M98.452,663.006v-17.037h-2.244v-1.343h4.576v8.354c0.456-0.846,1.037-1.469,1.743-1.87s1.578-0.603,2.618-0.603
			c1.656,0,3.008,0.655,4.056,1.965c1.048,1.311,1.572,3.021,1.572,5.134c0,2.113-0.524,3.826-1.572,5.141s-2.4,1.971-4.056,1.971
			c-1.04,0-1.912-0.2-2.618-0.602s-1.287-1.024-1.743-1.87v2.104h-4.576v-1.344H98.452z M100.784,658.278
			c0,1.623,0.311,2.858,0.932,3.708s1.523,1.274,2.706,1.274c1.192,0,2.094-0.478,2.707-1.433s0.919-2.362,0.919-4.222
			c0-1.867-0.306-3.274-0.919-4.221s-1.515-1.42-2.707-1.42c-1.183,0-2.085,0.427-2.706,1.28s-0.932,2.088-0.932,3.701V658.278z"/>
		<path d="M119.887,664.717c-1.961,0-3.537-0.648-4.729-1.945c-1.191-1.297-1.787-3.019-1.787-5.166
			c0-2.146,0.594-3.866,1.781-5.159c1.188-1.293,2.766-1.939,4.735-1.939c1.969,0,3.547,0.646,4.734,1.939s1.781,3.013,1.781,5.159
			c0,2.147-0.594,3.869-1.781,5.166S121.856,664.717,119.887,664.717z M119.887,663.462c1.25,0,2.195-0.494,2.833-1.482
			c0.638-0.989,0.957-2.447,0.957-4.374s-0.319-3.382-0.957-4.366s-1.583-1.478-2.833-1.478c-1.251,0-2.195,0.493-2.833,1.478
			c-0.638,0.984-0.957,2.439-0.957,4.366s0.321,3.385,0.963,4.374C117.703,662.968,118.645,663.462,119.887,663.462z"/>
		<path d="M133.033,663.006h2.206v1.344h-6.782v-1.344h2.244v-17.037h-2.244v-1.343h4.576V663.006z"/>
		<path d="M137.469,663.602v-3.144h1.344c0.034,1.006,0.349,1.758,0.944,2.257c0.596,0.498,1.477,0.747,2.643,0.747
			c1.048,0,1.847-0.196,2.396-0.589c0.549-0.394,0.824-0.966,0.824-1.718c0-0.592-0.201-1.069-0.602-1.433s-1.249-0.752-2.542-1.166
			l-1.686-0.57c-1.158-0.372-1.997-0.837-2.516-1.395s-0.78-1.268-0.78-2.13c0-1.233,0.452-2.201,1.356-2.902
			s2.155-1.053,3.752-1.053c0.709,0,1.458,0.094,2.244,0.279c0.786,0.186,1.597,0.456,2.434,0.812v2.94h-1.344
			c-0.034-0.87-0.338-1.551-0.913-2.041c-0.575-0.489-1.356-0.735-2.345-0.735c-0.98,0-1.722,0.174-2.225,0.521
			s-0.754,0.866-0.754,1.559c0,0.566,0.19,1.021,0.57,1.363c0.38,0.342,1.141,0.69,2.282,1.046l1.851,0.57
			c1.276,0.396,2.195,0.894,2.757,1.489c0.562,0.596,0.843,1.362,0.843,2.301c0,1.276-0.488,2.279-1.464,3.011
			c-0.976,0.73-2.322,1.096-4.037,1.096c-0.871,0-1.72-0.093-2.548-0.278C139.125,664.253,138.297,663.974,137.469,663.602z"/>
		<path d="M169.996,650.85v3.372h-1.344c-0.042-0.668-0.229-1.167-0.558-1.496c-0.329-0.33-0.811-0.494-1.445-0.494
			c-1.149,0-2.03,0.397-2.643,1.191s-0.919,1.936-0.919,3.423v6.16h2.7v1.344h-7.137v-1.344h2.104v-10.8h-2.231v-1.331h4.563v2.396
			c0.457-0.938,1.043-1.633,1.762-2.085c0.718-0.452,1.593-0.679,2.624-0.679c0.38,0,0.78,0.03,1.198,0.089
			C169.089,650.656,169.531,650.741,169.996,650.85z"/>
		<path d="M184.066,657.86h-10.052v0.102c0,1.817,0.342,3.188,1.026,4.113c0.685,0.926,1.694,1.388,3.03,1.388
			c1.022,0,1.861-0.268,2.516-0.805c0.655-0.536,1.113-1.333,1.375-2.39h1.876c-0.372,1.479-1.059,2.591-2.06,3.334
			c-1.001,0.744-2.318,1.115-3.949,1.115c-1.969,0-3.552-0.648-4.748-1.945s-1.793-3.019-1.793-5.166
			c0-2.129,0.587-3.845,1.762-5.146c1.174-1.301,2.717-1.952,4.626-1.952c2.037,0,3.6,0.628,4.69,1.883
			C183.458,653.645,184.024,655.468,184.066,657.86z M181.316,656.516c-0.051-1.571-0.382-2.757-0.995-3.556
			s-1.494-1.198-2.643-1.198c-1.073,0-1.918,0.402-2.535,1.205s-0.993,1.985-1.128,3.549H181.316z"/>
		<path d="M188.351,652.232h-2.244v-1.356h4.576v2.104c0.456-0.846,1.037-1.469,1.743-1.87s1.578-0.603,2.618-0.603
			c1.656,0,3.008,0.655,4.056,1.965c1.048,1.311,1.572,3.021,1.572,5.134c0,2.113-0.524,3.826-1.572,5.141s-2.4,1.971-4.056,1.971
			c-1.04,0-1.912-0.2-2.618-0.602s-1.287-1.024-1.743-1.87v6.148h2.206v1.356h-6.782v-1.356h2.244V652.232z M190.684,656.947v1.331
			c0,1.623,0.311,2.858,0.932,3.708s1.523,1.274,2.706,1.274c1.192,0,2.094-0.478,2.707-1.433s0.919-2.362,0.919-4.222
			c0-1.867-0.306-3.274-0.919-4.221s-1.515-1.42-2.707-1.42c-1.183,0-2.085,0.427-2.706,1.28S190.684,655.333,190.684,656.947z"/>
		<path d="M214.388,650.85v3.372h-1.344c-0.042-0.668-0.229-1.167-0.558-1.496c-0.329-0.33-0.811-0.494-1.445-0.494
			c-1.149,0-2.03,0.397-2.643,1.191s-0.919,1.936-0.919,3.423v6.16h2.7v1.344h-7.137v-1.344h2.104v-10.8h-2.231v-1.331h4.563v2.396
			c0.457-0.938,1.043-1.633,1.762-2.085c0.718-0.452,1.593-0.679,2.624-0.679c0.38,0,0.78,0.03,1.198,0.089
			C213.481,650.656,213.923,650.741,214.388,650.85z"/>
		<path d="M228.458,657.86h-10.052v0.102c0,1.817,0.342,3.188,1.026,4.113c0.685,0.926,1.694,1.388,3.03,1.388
			c1.022,0,1.861-0.268,2.516-0.805c0.655-0.536,1.113-1.333,1.375-2.39h1.876c-0.372,1.479-1.059,2.591-2.06,3.334
			c-1.001,0.744-2.318,1.115-3.949,1.115c-1.969,0-3.552-0.648-4.748-1.945s-1.793-3.019-1.793-5.166
			c0-2.129,0.587-3.845,1.762-5.146c1.174-1.301,2.717-1.952,4.626-1.952c2.037,0,3.6,0.628,4.69,1.883
			C227.85,653.645,228.416,655.468,228.458,657.86z M225.708,656.516c-0.051-1.571-0.382-2.757-0.995-3.556
			s-1.494-1.198-2.643-1.198c-1.073,0-1.918,0.402-2.535,1.205s-0.993,1.985-1.128,3.549H225.708z"/>
		<path d="M231.209,663.602v-3.144h1.344c0.034,1.006,0.349,1.758,0.944,2.257c0.596,0.498,1.477,0.747,2.643,0.747
			c1.048,0,1.847-0.196,2.396-0.589c0.549-0.394,0.824-0.966,0.824-1.718c0-0.592-0.201-1.069-0.602-1.433s-1.249-0.752-2.542-1.166
			l-1.686-0.57c-1.158-0.372-1.997-0.837-2.516-1.395s-0.78-1.268-0.78-2.13c0-1.233,0.452-2.201,1.356-2.902
			s2.155-1.053,3.752-1.053c0.709,0,1.458,0.094,2.244,0.279c0.786,0.186,1.597,0.456,2.434,0.812v2.94h-1.344
			c-0.034-0.87-0.338-1.551-0.913-2.041c-0.575-0.489-1.356-0.735-2.345-0.735c-0.98,0-1.722,0.174-2.225,0.521
			s-0.754,0.866-0.754,1.559c0,0.566,0.19,1.021,0.57,1.363c0.38,0.342,1.141,0.69,2.282,1.046l1.851,0.57
			c1.276,0.396,2.195,0.894,2.757,1.489c0.562,0.596,0.843,1.362,0.843,2.301c0,1.276-0.488,2.279-1.464,3.011
			c-0.976,0.73-2.322,1.096-4.037,1.096c-0.871,0-1.72-0.093-2.548-0.278C232.865,664.253,232.037,663.974,231.209,663.602z"/>
		<path d="M257.145,657.86h-10.052v0.102c0,1.817,0.342,3.188,1.026,4.113c0.685,0.926,1.694,1.388,3.03,1.388
			c1.022,0,1.861-0.268,2.516-0.805c0.655-0.536,1.113-1.333,1.375-2.39h1.876c-0.372,1.479-1.059,2.591-2.06,3.334
			c-1.001,0.744-2.318,1.115-3.949,1.115c-1.969,0-3.552-0.648-4.748-1.945s-1.793-3.019-1.793-5.166
			c0-2.129,0.587-3.845,1.762-5.146c1.174-1.301,2.717-1.952,4.626-1.952c2.037,0,3.6,0.628,4.69,1.883
			C256.536,653.645,257.103,655.468,257.145,657.86z M254.394,656.516c-0.051-1.571-0.382-2.757-0.995-3.556
			s-1.494-1.198-2.643-1.198c-1.073,0-1.918,0.402-2.535,1.205s-0.993,1.985-1.128,3.549H254.394z"/>
		<path d="M259.502,664.35v-1.344h2.104v-10.774h-2.231v-1.356h4.563v2.396c0.431-0.912,0.991-1.602,1.68-2.066
			c0.688-0.464,1.489-0.697,2.402-0.697c1.487,0,2.582,0.427,3.283,1.28c0.702,0.854,1.052,2.186,1.052,3.993v7.226h2.079v1.344
			h-6.44v-1.344h2.016v-6.49c0-1.647-0.203-2.778-0.608-3.391s-1.12-0.919-2.142-0.919c-1.082,0-1.906,0.395-2.472,1.185
			c-0.566,0.791-0.849,1.942-0.849,3.455v6.16h2.028v1.344H259.502z"/>
		<path d="M277.958,652.232h-2.053v-1.356h2.053v-4.184h2.345v4.184h4.386v1.356h-4.386v8.557c0,1.141,0.11,1.871,0.33,2.192
			s0.625,0.481,1.217,0.481c0.608,0,1.052-0.179,1.331-0.538s0.427-0.94,0.444-1.743h1.762c-0.067,1.226-0.401,2.121-1.001,2.688
			c-0.6,0.565-1.513,0.849-2.738,0.849c-1.344,0-2.294-0.298-2.852-0.894c-0.558-0.596-0.837-1.607-0.837-3.035V652.232z"/>
		<path d="M302.12,668.394c-2.053-0.922-3.604-2.382-4.652-4.38s-1.572-4.498-1.572-7.498c0-3.008,0.524-5.512,1.572-7.511
			c1.048-1.998,2.599-3.458,4.652-4.379v1.242c-1.301,0.896-2.235,2.156-2.801,3.783c-0.566,1.627-0.849,3.915-0.849,6.864
			c0,2.941,0.283,5.225,0.849,6.852c0.566,1.627,1.5,2.888,2.801,3.784V668.394z"/>
		<path d="M313.161,650.875h4.36v12.131h2.206v1.344h-4.538v-2.383c-0.431,0.896-0.989,1.578-1.673,2.047
			c-0.684,0.469-1.479,0.703-2.383,0.703c-1.496,0-2.597-0.424-3.302-1.273s-1.059-2.183-1.059-3.999v-7.213h-2.104v-1.356h4.449
			v7.847c0,1.64,0.201,2.763,0.602,3.371c0.401,0.609,1.118,0.913,2.149,0.913c1.082,0,1.905-0.397,2.472-1.191
			c0.566-0.794,0.849-1.948,0.849-3.461v-6.122h-2.028V650.875z"/>
		<path d="M321.755,664.35v-1.344h2.104v-10.774h-2.231v-1.356h4.563v2.396c0.431-0.912,0.991-1.602,1.68-2.066
			c0.688-0.464,1.489-0.697,2.402-0.697c1.487,0,2.582,0.427,3.283,1.28c0.701,0.854,1.052,2.186,1.052,3.993v7.226h2.079v1.344
			h-6.439v-1.344h2.016v-6.49c0-1.647-0.203-2.778-0.608-3.391c-0.406-0.612-1.12-0.919-2.142-0.919
			c-1.082,0-1.906,0.395-2.472,1.185c-0.566,0.791-0.849,1.942-0.849,3.455v6.16h2.028v1.344H321.755z"/>
		<path d="M349.82,650.85v3.372h-1.344c-0.043-0.668-0.229-1.167-0.558-1.496c-0.33-0.33-0.812-0.494-1.445-0.494
			c-1.149,0-2.03,0.397-2.643,1.191c-0.613,0.794-0.92,1.936-0.92,3.423v6.16h2.7v1.344h-7.137v-1.344h2.104v-10.8h-2.23v-1.331
			h4.562v2.396c0.457-0.938,1.044-1.633,1.763-2.085c0.718-0.452,1.593-0.679,2.624-0.679c0.38,0,0.779,0.03,1.197,0.089
			C348.914,650.656,349.355,650.741,349.82,650.85z"/>
		<path d="M357.629,664.717c-1.961,0-3.537-0.648-4.729-1.945s-1.787-3.019-1.787-5.166c0-2.146,0.594-3.866,1.781-5.159
			c1.187-1.293,2.766-1.939,4.734-1.939s3.547,0.646,4.734,1.939s1.781,3.013,1.781,5.159c0,2.147-0.594,3.869-1.781,5.166
			S359.598,664.717,357.629,664.717z M357.629,663.462c1.251,0,2.195-0.494,2.833-1.482c0.638-0.989,0.957-2.447,0.957-4.374
			s-0.319-3.382-0.957-4.366s-1.582-1.478-2.833-1.478s-2.195,0.493-2.833,1.478c-0.639,0.984-0.957,2.439-0.957,4.366
			s0.321,3.385,0.963,4.374C355.444,662.968,356.387,663.462,357.629,663.462z"/>
		<path d="M374.641,650.875h4.36v12.131h2.206v1.344h-4.538v-2.383c-0.432,0.896-0.989,1.578-1.674,2.047s-1.479,0.703-2.383,0.703
			c-1.496,0-2.597-0.424-3.302-1.273c-0.706-0.85-1.059-2.183-1.059-3.999v-7.213h-2.104v-1.356h4.449v7.847
			c0,1.64,0.2,2.763,0.603,3.371c0.401,0.609,1.117,0.913,2.148,0.913c1.081,0,1.905-0.397,2.472-1.191s0.85-1.948,0.85-3.461
			v-6.122h-2.028V650.875z"/>
		<path d="M383.234,664.35v-1.344h2.104v-10.774h-2.23v-1.356h4.562v2.396c0.432-0.912,0.991-1.602,1.68-2.066
			c0.689-0.464,1.49-0.697,2.402-0.697c1.487,0,2.582,0.427,3.283,1.28c0.701,0.854,1.052,2.186,1.052,3.993v7.226h2.079v1.344
			h-6.439v-1.344h2.016v-6.49c0-1.647-0.203-2.778-0.608-3.391s-1.12-0.919-2.143-0.919c-1.081,0-1.905,0.395-2.472,1.185
			c-0.566,0.791-0.85,1.942-0.85,3.455v6.16h2.028v1.344H383.234z"/>
		<path d="M412.517,663.006h2.23v1.344h-4.562v-2.104c-0.457,0.846-1.038,1.469-1.743,1.87c-0.706,0.401-1.578,0.602-2.618,0.602
			c-1.656,0-3.011-0.656-4.062-1.971s-1.578-3.027-1.578-5.141c0-2.112,0.523-3.823,1.572-5.134c1.047-1.31,2.403-1.965,4.068-1.965
			c1.04,0,1.912,0.201,2.618,0.603c0.705,0.401,1.286,1.024,1.743,1.87v-7.011h-2.206v-1.343h4.538V663.006z M410.185,658.278
			v-1.331c0-1.613-0.311-2.848-0.933-3.701c-0.621-0.854-1.522-1.28-2.706-1.28c-1.2,0-2.106,0.474-2.719,1.42
			c-0.613,0.946-0.919,2.354-0.919,4.221c0,1.859,0.306,3.267,0.919,4.222c0.612,0.955,1.519,1.433,2.719,1.433
			c1.184,0,2.085-0.425,2.706-1.274C409.874,661.136,410.185,659.901,410.185,658.278z"/>
		<path d="M429.578,657.86h-10.052v0.102c0,1.817,0.342,3.188,1.026,4.113s1.694,1.388,3.03,1.388c1.021,0,1.86-0.268,2.516-0.805
			c0.655-0.536,1.113-1.333,1.375-2.39h1.877c-0.372,1.479-1.059,2.591-2.061,3.334c-1.001,0.744-2.317,1.115-3.948,1.115
			c-1.97,0-3.552-0.648-4.747-1.945c-1.196-1.297-1.794-3.019-1.794-5.166c0-2.129,0.587-3.845,1.762-5.146
			c1.175-1.301,2.717-1.952,4.627-1.952c2.037,0,3.601,0.628,4.69,1.883S429.536,655.468,429.578,657.86z M426.827,656.516
			c-0.05-1.571-0.382-2.757-0.994-3.556c-0.613-0.799-1.494-1.198-2.644-1.198c-1.073,0-1.918,0.402-2.535,1.205
			s-0.993,1.985-1.128,3.549H426.827z"/>
		<path d="M444.498,663.006h2.23v1.344h-4.562v-2.104c-0.457,0.846-1.038,1.469-1.743,1.87c-0.706,0.401-1.578,0.602-2.618,0.602
			c-1.656,0-3.011-0.656-4.062-1.971s-1.578-3.027-1.578-5.141c0-2.112,0.523-3.823,1.572-5.134c1.047-1.31,2.403-1.965,4.068-1.965
			c1.04,0,1.912,0.201,2.618,0.603c0.705,0.401,1.286,1.024,1.743,1.87v-7.011h-2.206v-1.343h4.538V663.006z M442.166,658.278
			v-1.331c0-1.613-0.311-2.848-0.933-3.701c-0.621-0.854-1.522-1.28-2.706-1.28c-1.2,0-2.106,0.474-2.719,1.42
			c-0.613,0.946-0.919,2.354-0.919,4.221c0,1.859,0.306,3.267,0.919,4.222c0.612,0.955,1.519,1.433,2.719,1.433
			c1.184,0,2.085-0.425,2.706-1.274C441.855,661.136,442.166,659.901,442.166,658.278z"/>
		<path d="M463.231,655.761c0-2.017,0.703-3.721,2.11-5.11c1.406-1.391,3.135-2.086,5.184-2.086c2.017,0,3.721,0.695,5.111,2.086
			c1.39,1.39,2.085,3.094,2.085,5.11c0,2.033-0.699,3.749-2.098,5.147s-3.114,2.098-5.147,2.098s-3.749-0.699-5.147-2.098
			S463.231,657.794,463.231,655.761z"/>
		<path d="M505.874,650.85v3.372h-1.344c-0.043-0.668-0.229-1.167-0.559-1.496c-0.33-0.33-0.811-0.494-1.445-0.494
			c-1.148,0-2.029,0.397-2.643,1.191s-0.92,1.936-0.92,3.423v6.16h2.701v1.344h-7.137v-1.344h2.104v-10.8h-2.23v-1.331h4.562v2.396
			c0.457-0.938,1.045-1.633,1.764-2.085c0.717-0.452,1.592-0.679,2.623-0.679c0.381,0,0.779,0.03,1.197,0.089
			C504.967,650.656,505.409,650.741,505.874,650.85z"/>
		<path d="M513.682,664.717c-1.961,0-3.537-0.648-4.729-1.945s-1.787-3.019-1.787-5.166c0-2.146,0.594-3.866,1.781-5.159
			c1.186-1.293,2.766-1.939,4.734-1.939s3.547,0.646,4.734,1.939s1.781,3.013,1.781,5.159c0,2.147-0.594,3.869-1.781,5.166
			S515.651,664.717,513.682,664.717z M513.682,663.462c1.25,0,2.195-0.494,2.832-1.482c0.639-0.989,0.957-2.447,0.957-4.374
			s-0.318-3.382-0.957-4.366c-0.637-0.984-1.582-1.478-2.832-1.478c-1.252,0-2.195,0.493-2.834,1.478s-0.957,2.439-0.957,4.366
			s0.322,3.385,0.963,4.374C511.497,662.968,512.44,663.462,513.682,663.462z"/>
		<path d="M530.694,650.875h4.359v12.131h2.207v1.344h-4.539v-2.383c-0.432,0.896-0.988,1.578-1.674,2.047
			c-0.684,0.469-1.479,0.703-2.383,0.703c-1.496,0-2.596-0.424-3.301-1.273c-0.707-0.85-1.059-2.183-1.059-3.999v-7.213H522.2
			v-1.356h4.449v7.847c0,1.64,0.201,2.763,0.604,3.371c0.4,0.609,1.117,0.913,2.148,0.913c1.08,0,1.904-0.397,2.471-1.191
			s0.85-1.948,0.85-3.461v-6.122h-2.027V650.875z"/>
		<path d="M539.288,664.35v-1.344h2.104v-10.774h-2.23v-1.356h4.562v2.396c0.432-0.912,0.992-1.602,1.68-2.066
			c0.689-0.464,1.49-0.697,2.402-0.697c1.488,0,2.582,0.427,3.283,1.28c0.701,0.854,1.053,2.186,1.053,3.993v7.226h2.078v1.344
			h-6.439v-1.344h2.016v-6.49c0-1.647-0.203-2.778-0.607-3.391c-0.406-0.612-1.121-0.919-2.143-0.919
			c-1.082,0-1.906,0.395-2.473,1.185c-0.566,0.791-0.85,1.942-0.85,3.455v6.16h2.029v1.344H539.288z"/>
		<path d="M568.569,663.006h2.23v1.344h-4.562v-2.104c-0.457,0.846-1.037,1.469-1.742,1.87c-0.707,0.401-1.578,0.602-2.619,0.602
			c-1.656,0-3.01-0.656-4.062-1.971c-1.051-1.314-1.578-3.027-1.578-5.141c0-2.112,0.523-3.823,1.572-5.134
			c1.047-1.31,2.404-1.965,4.068-1.965c1.041,0,1.912,0.201,2.619,0.603c0.705,0.401,1.285,1.024,1.742,1.87v-7.011h-2.205v-1.343
			h4.537V663.006z M566.237,658.278v-1.331c0-1.613-0.311-2.848-0.932-3.701s-1.523-1.28-2.707-1.28
			c-1.199,0-2.105,0.474-2.719,1.42s-0.918,2.354-0.918,4.221c0,1.859,0.305,3.267,0.918,4.222s1.52,1.433,2.719,1.433
			c1.184,0,2.086-0.425,2.707-1.274S566.237,659.901,566.237,658.278z"/>
		<path d="M585.631,657.86h-10.051v0.102c0,1.817,0.342,3.188,1.025,4.113c0.686,0.926,1.695,1.388,3.031,1.388
			c1.021,0,1.859-0.268,2.516-0.805c0.654-0.536,1.113-1.333,1.375-2.39h1.877c-0.373,1.479-1.059,2.591-2.061,3.334
			c-1.002,0.744-2.318,1.115-3.949,1.115c-1.969,0-3.551-0.648-4.746-1.945c-1.197-1.297-1.795-3.019-1.795-5.166
			c0-2.129,0.588-3.845,1.762-5.146c1.176-1.301,2.717-1.952,4.627-1.952c2.037,0,3.602,0.628,4.691,1.883
			S585.59,655.468,585.631,657.86z M582.881,656.516c-0.051-1.571-0.383-2.757-0.994-3.556c-0.613-0.799-1.494-1.198-2.645-1.198
			c-1.072,0-1.918,0.402-2.535,1.205s-0.992,1.985-1.127,3.549H582.881z"/>
		<path d="M600.551,663.006h2.23v1.344h-4.562v-2.104c-0.457,0.846-1.037,1.469-1.742,1.87c-0.707,0.401-1.578,0.602-2.619,0.602
			c-1.656,0-3.01-0.656-4.062-1.971c-1.051-1.314-1.578-3.027-1.578-5.141c0-2.112,0.523-3.823,1.572-5.134
			c1.047-1.31,2.404-1.965,4.068-1.965c1.041,0,1.912,0.201,2.619,0.603c0.705,0.401,1.285,1.024,1.742,1.87v-7.011h-2.205v-1.343
			h4.537V663.006z M598.219,658.278v-1.331c0-1.613-0.311-2.848-0.932-3.701s-1.523-1.28-2.707-1.28
			c-1.199,0-2.105,0.474-2.719,1.42s-0.918,2.354-0.918,4.221c0,1.859,0.305,3.267,0.918,4.222s1.52,1.433,2.719,1.433
			c1.184,0,2.086-0.425,2.707-1.274S598.219,659.901,598.219,658.278z"/>
		<path d="M605.381,668.394v-1.242c1.301-0.896,2.236-2.157,2.807-3.784s0.855-3.91,0.855-6.852c0-2.949-0.285-5.237-0.855-6.864
			s-1.506-2.888-2.807-3.783v-1.242c2.061,0.921,3.617,2.381,4.664,4.379c1.049,1.999,1.572,4.503,1.572,7.511
			c0,3-0.523,5.5-1.572,7.498C608.999,666.012,607.442,667.472,605.381,668.394z"/>
		<path d="M628.338,664.35l-4.957-12.118h-1.533v-1.356h6.199v1.356h-2.156l3.791,9.266l3.789-9.266h-2.016v-1.356h5.059v1.356
			h-1.508l-4.957,12.118H628.338z"/>
		<path d="M644.399,664.717c-1.961,0-3.537-0.648-4.729-1.945s-1.787-3.019-1.787-5.166c0-2.146,0.594-3.866,1.781-5.159
			c1.186-1.293,2.766-1.939,4.734-1.939s3.547,0.646,4.734,1.939s1.781,3.013,1.781,5.159c0,2.147-0.594,3.869-1.781,5.166
			S646.368,664.717,644.399,664.717z M644.399,663.462c1.25,0,2.195-0.494,2.832-1.482c0.639-0.989,0.957-2.447,0.957-4.374
			s-0.318-3.382-0.957-4.366c-0.637-0.984-1.582-1.478-2.832-1.478c-1.252,0-2.195,0.493-2.834,1.478s-0.957,2.439-0.957,4.366
			s0.322,3.385,0.963,4.374C642.213,662.968,643.157,663.462,644.399,663.462z"/>
		<path d="M664.68,650.875l3.447,10.521l3.043-9.165h-1.951v-1.356h4.879v1.356h-1.496l-4.004,12.118h-1.939l-3.322-10.077
			l-3.334,10.077h-1.863l-3.992-12.118h-1.51v-1.356h6.098v1.356h-2.18l3.018,9.165l3.473-10.521H664.68z"/>
		<path d="M688.51,657.86h-10.051v0.102c0,1.817,0.342,3.188,1.025,4.113c0.686,0.926,1.695,1.388,3.031,1.388
			c1.021,0,1.859-0.268,2.516-0.805c0.654-0.536,1.113-1.333,1.375-2.39h1.877c-0.373,1.479-1.059,2.591-2.061,3.334
			c-1.002,0.744-2.318,1.115-3.949,1.115c-1.969,0-3.551-0.648-4.746-1.945c-1.197-1.297-1.795-3.019-1.795-5.166
			c0-2.129,0.588-3.845,1.762-5.146c1.176-1.301,2.717-1.952,4.627-1.952c2.037,0,3.602,0.628,4.691,1.883
			S688.469,655.468,688.51,657.86z M685.76,656.516c-0.051-1.571-0.383-2.757-0.994-3.556c-0.613-0.799-1.494-1.198-2.645-1.198
			c-1.072,0-1.918,0.402-2.535,1.205s-0.992,1.985-1.127,3.549H685.76z"/>
		<path d="M695.129,663.006h2.205v1.344h-6.781v-1.344h2.242v-17.037h-2.242v-1.343h4.576V663.006z"/>
		<path d="M699.565,663.602v-3.144h1.344c0.033,1.006,0.35,1.758,0.945,2.257c0.596,0.498,1.477,0.747,2.643,0.747
			c1.047,0,1.846-0.196,2.395-0.589c0.551-0.394,0.824-0.966,0.824-1.718c0-0.592-0.201-1.069-0.602-1.433
			c-0.402-0.363-1.248-0.752-2.541-1.166l-1.686-0.57c-1.158-0.372-1.998-0.837-2.518-1.395s-0.779-1.268-0.779-2.13
			c0-1.233,0.453-2.201,1.357-2.902c0.902-0.701,2.154-1.053,3.752-1.053c0.709,0,1.457,0.094,2.242,0.279
			c0.787,0.186,1.598,0.456,2.436,0.812v2.94h-1.344c-0.035-0.87-0.34-1.551-0.914-2.041c-0.574-0.489-1.355-0.735-2.344-0.735
			c-0.98,0-1.723,0.174-2.225,0.521c-0.504,0.347-0.756,0.866-0.756,1.559c0,0.566,0.191,1.021,0.57,1.363
			c0.381,0.342,1.143,0.69,2.283,1.046l1.85,0.57c1.277,0.396,2.195,0.894,2.758,1.489s0.842,1.362,0.842,2.301
			c0,1.276-0.486,2.279-1.463,3.011c-0.977,0.73-2.322,1.096-4.037,1.096c-0.871,0-1.721-0.093-2.549-0.278
			S700.393,663.974,699.565,663.602z"/>
		<path d="M713.875,663.032c0-0.473,0.16-0.875,0.482-1.204c0.32-0.33,0.723-0.494,1.205-0.494c0.463,0,0.861,0.164,1.191,0.494
			c0.328,0.329,0.494,0.731,0.494,1.204c0,0.465-0.166,0.862-0.494,1.191c-0.33,0.33-0.729,0.494-1.191,0.494
			c-0.482,0-0.885-0.162-1.205-0.487C714.036,663.905,713.875,663.505,713.875,663.032z"/>
	</g>
	<g>
		<path d="M45.774,44.338l8.602,22.354l8.583-22.354h-3.277v-2.087h8.543v2.087h-2.828L55.001,71.373h-3.355L41.308,44.338h-2.906
			v-2.087h10.611v2.087H45.774z"/>
		<path d="M83.323,71.938c-1.977,0-3.794-0.325-5.452-0.975c-1.658-0.65-3.118-1.606-4.379-2.867
			c-1.457-1.457-2.539-3.108-3.248-4.955c-0.709-1.846-1.063-3.946-1.063-6.3c0-2.354,0.354-4.457,1.063-6.31
			c0.708-1.853,1.791-3.508,3.248-4.964c1.274-1.274,2.731-2.233,4.37-2.877c1.638-0.644,3.459-0.966,5.461-0.966
			c4.226,0,7.64,1.385,10.241,4.155c2.601,2.77,3.901,6.424,3.901,10.962c0,2.328-0.358,4.425-1.073,6.291
			c-0.715,1.866-1.801,3.521-3.257,4.964c-1.275,1.274-2.731,2.233-4.369,2.877C87.127,71.617,85.313,71.938,83.323,71.938z
			 M83.323,69.852c3.186,0,5.591-1.095,7.217-3.287c1.625-2.191,2.438-5.433,2.438-9.724c0-4.304-0.812-7.552-2.438-9.743
			c-1.626-2.191-4.031-3.287-7.217-3.287c-3.199,0-5.611,1.096-7.237,3.287c-1.625,2.191-2.438,5.439-2.438,9.743
			c0,4.291,0.812,7.533,2.438,9.724C77.712,68.756,80.125,69.852,83.323,69.852z"/>
		<path d="M130.137,71.373h-3.199l-6.671-23.68l-6.671,23.68h-3.199l-7.626-27.035h-2.887v-2.087h10.631v2.087h-3.628l6.066,21.515
			l6.632-23.602h3.16l6.749,23.855l6.105-21.769h-3.355v-2.087h8.387v2.087h-2.867L130.137,71.373z"/>
		<path d="M142.952,71.373v-2.067h3.706V44.338h-3.706v-2.087h23.446v6.476h-2.399V44.65h-13.381v9.752h9.538v-3.647h2.399v9.675
			h-2.399v-3.647h-9.538v12.191h13.693v-4.077h2.399v6.476H142.952z"/>
		<path d="M172.113,71.373v-2.067h3.706V44.338h-3.706v-2.087h11.372v2.087h-3.706v24.636h13.303v-4.876h2.399v7.275H172.113z"/>
		<path d="M200.143,69.969v-6.632l2.243,0.019c0.065,2.211,0.705,3.846,1.921,4.906c1.216,1.06,3.065,1.59,5.549,1.59
			c2.314,0,4.08-0.458,5.296-1.375c1.216-0.917,1.824-2.253,1.824-4.008c0-1.405-0.368-2.484-1.102-3.238
			c-0.735-0.754-2.286-1.489-4.652-2.204l-3.842-1.151c-2.783-0.845-4.743-1.898-5.881-3.16c-1.138-1.261-1.707-2.991-1.707-5.188
			c0-2.471,0.878-4.389,2.633-5.754s4.22-2.048,7.393-2.048c1.353,0,2.835,0.146,4.447,0.439c1.612,0.293,3.329,0.719,5.149,1.278
			v6.203h-2.204c-0.221-2.054-0.907-3.54-2.058-4.457c-1.151-0.917-2.903-1.375-5.257-1.375c-2.055,0-3.618,0.419-4.691,1.258
			c-1.073,0.839-1.609,2.058-1.609,3.658c0,1.392,0.403,2.484,1.209,3.277c0.806,0.793,2.516,1.58,5.13,2.36l3.608,1.073
			c2.64,0.793,4.522,1.804,5.647,3.033c1.125,1.229,1.687,2.877,1.687,4.944c0,2.822-0.904,4.948-2.711,6.378
			c-1.808,1.431-4.5,2.146-8.076,2.146c-1.599,0-3.228-0.163-4.886-0.487C203.546,71.126,201.859,70.632,200.143,69.969z"/>
	</g>
	<g>
		<path d="M53.897,161.759c-0.38,1.658-1.112,2.921-2.194,3.789c-1.083,0.868-2.482,1.302-4.199,1.302
			c-2.263,0-4.082-0.749-5.457-2.246c-1.375-1.497-2.062-3.484-2.062-5.961c0-2.487,0.688-4.474,2.062-5.961
			c1.375-1.487,3.194-2.231,5.457-2.231c0.985,0,1.965,0.115,2.94,0.344c0.975,0.229,1.955,0.578,2.94,1.046v3.979H51.82
			c-0.205-1.365-0.651-2.36-1.338-2.984c-0.688-0.624-1.67-0.936-2.948-0.936c-1.454,0-2.551,0.563-3.292,1.689
			c-0.742,1.126-1.112,2.812-1.112,5.055s0.368,3.93,1.104,5.062c0.736,1.132,1.836,1.697,3.299,1.697
			c1.161,0,2.087-0.302,2.779-0.907c0.692-0.604,1.166-1.516,1.419-2.735H53.897z"/>
		<path d="M61.417,164.875h2.545v1.551h-7.827v-1.551h2.589v-19.662h-2.589v-1.551h5.281V164.875z"/>
		<path d="M73.866,166.85c-2.263,0-4.082-0.749-5.457-2.246c-1.375-1.497-2.062-3.484-2.062-5.961c0-2.477,0.685-4.462,2.055-5.954
			c1.371-1.492,3.192-2.238,5.464-2.238s4.094,0.746,5.464,2.238s2.056,3.477,2.056,5.954c0,2.478-0.686,4.464-2.056,5.961
			S76.139,166.85,73.866,166.85z M73.866,165.401c1.443,0,2.533-0.571,3.27-1.712s1.104-2.823,1.104-5.047s-0.368-3.904-1.104-5.04
			c-0.736-1.136-1.826-1.704-3.27-1.704s-2.534,0.568-3.27,1.704c-0.737,1.136-1.104,2.816-1.104,5.04s0.37,3.906,1.112,5.047
			C71.345,164.831,72.433,165.401,73.866,165.401z"/>
		<path d="M84.575,165.562v-3.628h1.551c0.039,1.161,0.402,2.029,1.09,2.604c0.688,0.576,1.705,0.863,3.05,0.863
			c1.209,0,2.131-0.227,2.765-0.68c0.634-0.454,0.951-1.114,0.951-1.982c0-0.683-0.231-1.234-0.695-1.653
			c-0.463-0.419-1.441-0.868-2.933-1.346l-1.946-0.658c-1.336-0.429-2.304-0.966-2.904-1.609s-0.9-1.463-0.9-2.458
			c0-1.424,0.522-2.541,1.565-3.35s2.487-1.214,4.331-1.214c0.819,0,1.682,0.107,2.589,0.322c0.907,0.215,1.843,0.527,2.809,0.936
			v3.394h-1.551c-0.039-1.004-0.39-1.79-1.053-2.355c-0.663-0.566-1.565-0.849-2.707-0.849c-1.131,0-1.987,0.2-2.567,0.6
			c-0.58,0.4-0.87,1-0.87,1.8c0,0.653,0.219,1.177,0.658,1.572s1.316,0.797,2.633,1.207l2.136,0.658
			c1.473,0.458,2.533,1.032,3.182,1.719c0.648,0.688,0.973,1.572,0.973,2.655c0,1.473-0.563,2.631-1.69,3.474
			c-1.126,0.844-2.68,1.266-4.659,1.266c-1.005,0-1.985-0.107-2.94-0.322C86.486,166.313,85.531,165.991,84.575,165.562z"/>
		<path d="M114.506,158.935h-11.601v0.117c0,2.097,0.395,3.679,1.185,4.747c0.79,1.068,1.956,1.602,3.497,1.602
			c1.18,0,2.148-0.31,2.904-0.929c0.756-0.619,1.285-1.538,1.587-2.757h2.165c-0.429,1.707-1.222,2.989-2.377,3.847
			c-1.156,0.858-2.675,1.288-4.557,1.288c-2.272,0-4.099-0.749-5.479-2.246c-1.38-1.497-2.07-3.484-2.07-5.961
			c0-2.458,0.678-4.438,2.034-5.939c1.355-1.502,3.135-2.253,5.339-2.253c2.351,0,4.155,0.724,5.413,2.172
			C113.804,154.071,114.458,156.175,114.506,158.935z M111.332,157.384c-0.059-1.814-0.441-3.182-1.148-4.104
			c-0.707-0.921-1.724-1.382-3.05-1.382c-1.239,0-2.214,0.463-2.926,1.39c-0.712,0.927-1.146,2.292-1.302,4.096H111.332z"/>
	</g>
	<g>
		<path d="M78.885,307.811c-0.38,1.658-1.112,2.921-2.194,3.789c-1.083,0.868-2.482,1.302-4.199,1.302
			c-2.263,0-4.082-0.749-5.457-2.246c-1.375-1.497-2.062-3.484-2.062-5.961c0-2.487,0.688-4.474,2.062-5.961
			c1.375-1.487,3.194-2.231,5.457-2.231c0.985,0,1.965,0.115,2.94,0.344c0.975,0.229,1.955,0.578,2.94,1.046v3.979h-1.565
			c-0.205-1.365-0.651-2.36-1.338-2.984c-0.688-0.624-1.67-0.936-2.948-0.936c-1.454,0-2.551,0.563-3.292,1.689
			c-0.742,1.126-1.112,2.812-1.112,5.055s0.368,3.93,1.104,5.062c0.736,1.132,1.836,1.697,3.299,1.697
			c1.161,0,2.087-0.302,2.779-0.907c0.692-0.604,1.166-1.516,1.419-2.735H78.885z"/>
		<path d="M86.404,310.926h2.545v1.551h-7.827v-1.551h2.589v-19.662h-2.589v-1.551h5.281V310.926z"/>
		<path d="M98.854,312.901c-2.263,0-4.082-0.749-5.457-2.246c-1.375-1.497-2.062-3.484-2.062-5.961c0-2.477,0.685-4.462,2.055-5.954
			c1.371-1.492,3.192-2.238,5.464-2.238s4.094,0.746,5.464,2.238s2.056,3.477,2.056,5.954c0,2.478-0.686,4.464-2.056,5.961
			S101.126,312.901,98.854,312.901z M98.854,311.453c1.443,0,2.533-0.571,3.27-1.712s1.104-2.823,1.104-5.047
			s-0.368-3.904-1.104-5.04c-0.736-1.136-1.826-1.704-3.27-1.704s-2.534,0.568-3.27,1.704c-0.737,1.136-1.104,2.816-1.104,5.04
			s0.37,3.906,1.112,5.047C96.332,310.882,97.42,311.453,98.854,311.453z"/>
		<path d="M109.562,311.614v-3.628h1.551c0.039,1.161,0.402,2.029,1.09,2.604c0.688,0.576,1.705,0.863,3.05,0.863
			c1.209,0,2.131-0.227,2.765-0.68c0.634-0.454,0.951-1.114,0.951-1.982c0-0.683-0.231-1.234-0.695-1.653
			c-0.463-0.419-1.441-0.868-2.933-1.346l-1.946-0.658c-1.336-0.429-2.304-0.966-2.904-1.609s-0.9-1.463-0.9-2.458
			c0-1.424,0.522-2.541,1.565-3.35s2.487-1.214,4.331-1.214c0.819,0,1.682,0.107,2.589,0.322c0.907,0.215,1.843,0.527,2.809,0.936
			v3.394h-1.551c-0.039-1.004-0.39-1.79-1.053-2.355c-0.663-0.566-1.565-0.849-2.707-0.849c-1.131,0-1.987,0.2-2.567,0.6
			c-0.58,0.4-0.87,1-0.87,1.8c0,0.653,0.219,1.177,0.658,1.572s1.316,0.797,2.633,1.207l2.136,0.658
			c1.473,0.458,2.533,1.032,3.182,1.719c0.648,0.688,0.973,1.572,0.973,2.655c0,1.473-0.563,2.631-1.69,3.474
			c-1.126,0.844-2.68,1.266-4.659,1.266c-1.005,0-1.985-0.107-2.94-0.322C111.474,312.365,110.518,312.043,109.562,311.614z"/>
		<path d="M139.494,304.987h-11.601v0.117c0,2.097,0.395,3.679,1.185,4.747c0.79,1.068,1.956,1.602,3.497,1.602
			c1.18,0,2.148-0.31,2.904-0.929c0.756-0.619,1.285-1.538,1.587-2.757h2.165c-0.429,1.707-1.222,2.989-2.377,3.847
			c-1.156,0.858-2.675,1.288-4.557,1.288c-2.272,0-4.099-0.749-5.479-2.246c-1.38-1.497-2.07-3.484-2.07-5.961
			c0-2.458,0.678-4.438,2.034-5.939c1.355-1.502,3.135-2.253,5.339-2.253c2.351,0,4.155,0.724,5.413,2.172
			C138.792,300.123,139.445,302.227,139.494,304.987z M136.319,303.436c-0.059-1.814-0.441-3.182-1.148-4.104
			c-0.707-0.921-1.724-1.382-3.05-1.382c-1.239,0-2.214,0.463-2.926,1.39c-0.712,0.927-1.146,2.292-1.302,4.096H136.319z"/>
		<path d="M142.302,303.305h7.49v2.282h-7.49V303.305z"/>
		<path d="M166.631,299.955c0.517-1.141,1.178-2.002,1.982-2.583c0.805-0.58,1.743-0.87,2.816-0.87c1.628,0,2.843,0.504,3.643,1.514
			c0.799,1.009,1.2,2.533,1.2,4.572v8.338h2.428v1.551h-7.461v-1.551h2.341v-8.031c0-1.59-0.234-2.721-0.702-3.394
			c-0.468-0.673-1.244-1.01-2.326-1.01c-1.2,0-2.114,0.454-2.743,1.361c-0.629,0.907-0.943,2.229-0.943,3.964v7.11h2.34v1.551
			h-7.373v-1.551h2.341v-8.134c0-1.551-0.234-2.655-0.702-3.313s-1.244-0.988-2.326-0.988c-1.2,0-2.114,0.454-2.743,1.361
			c-0.629,0.907-0.943,2.229-0.943,3.964v7.11h2.341v1.551h-7.461v-1.551h2.428v-12.464h-2.575v-1.536h5.267v2.765
			c0.498-1.034,1.131-1.824,1.902-2.37c0.771-0.546,1.643-0.819,2.619-0.819c1.209,0,2.219,0.3,3.028,0.899
			C165.816,298.001,166.358,298.853,166.631,299.955z"/>
		<path d="M185.869,310.926h2.545v1.551h-7.812v-1.551h2.575v-12.435h-2.575v-1.565h5.267V310.926z M182.431,292.099
			c0-0.449,0.163-0.839,0.49-1.17c0.327-0.332,0.719-0.498,1.178-0.498c0.448,0,0.836,0.166,1.163,0.498
			c0.327,0.332,0.49,0.722,0.49,1.17c0,0.458-0.161,0.848-0.482,1.17c-0.322,0.322-0.712,0.483-1.17,0.483
			c-0.458,0-0.851-0.161-1.178-0.483C182.594,292.947,182.431,292.557,182.431,292.099z"/>
		<path d="M204.828,310.926h2.575v1.551h-5.267v-2.428c-0.527,0.975-1.197,1.694-2.012,2.158c-0.814,0.463-1.821,0.695-3.021,0.695
			c-1.912,0-3.475-0.758-4.689-2.275s-1.821-3.494-1.821-5.932s0.604-4.413,1.814-5.925s2.774-2.268,4.696-2.268
			c1.199,0,2.206,0.232,3.021,0.695c0.814,0.463,1.485,1.183,2.012,2.158v-8.09h-2.545v-1.551h5.237V310.926z M202.136,305.47
			v-1.536c0-1.863-0.358-3.287-1.075-4.272c-0.717-0.985-1.758-1.478-3.124-1.478c-1.385,0-2.431,0.546-3.138,1.639
			c-0.708,1.092-1.061,2.716-1.061,4.872c0,2.146,0.353,3.77,1.061,4.872c0.707,1.102,1.753,1.653,3.138,1.653
			c1.366,0,2.407-0.49,3.124-1.47C201.778,308.769,202.136,307.342,202.136,305.47z"/>
	</g>
	<g>
		<path d="M97.479,458.953c-2.263,0-4.082-0.748-5.457-2.245c-1.375-1.497-2.062-3.484-2.062-5.962c0-2.477,0.685-4.462,2.055-5.954
			c1.371-1.492,3.192-2.238,5.464-2.238s4.094,0.746,5.464,2.238s2.056,3.478,2.056,5.954c0,2.478-0.686,4.465-2.056,5.962
			S99.751,458.953,97.479,458.953z M97.479,457.504c1.443,0,2.533-0.57,3.27-1.711c0.736-1.142,1.104-2.824,1.104-5.048
			s-0.368-3.903-1.104-5.039c-0.736-1.137-1.826-1.705-3.27-1.705s-2.534,0.568-3.27,1.705c-0.737,1.136-1.104,2.815-1.104,5.039
			s0.37,3.906,1.112,5.048C94.958,456.934,96.045,457.504,97.479,457.504z"/>
		<path d="M109.958,444.543h-2.589v-1.565h5.281v2.429c0.526-0.976,1.197-1.695,2.011-2.158s1.821-0.695,3.021-0.695
			c1.912,0,3.472,0.756,4.681,2.268c1.209,1.513,1.814,3.487,1.814,5.925c0,2.438-0.605,4.416-1.814,5.933
			c-1.209,1.517-2.77,2.274-4.681,2.274c-1.2,0-2.207-0.231-3.021-0.694s-1.485-1.183-2.011-2.158v7.096h2.545v1.565h-7.827v-1.565
			h2.589V444.543z M112.65,449.985v1.536c0,1.873,0.358,3.299,1.075,4.279s1.758,1.471,3.123,1.471c1.375,0,2.416-0.551,3.124-1.653
			c0.707-1.103,1.061-2.726,1.061-4.872c0-2.155-0.354-3.778-1.061-4.871c-0.708-1.092-1.748-1.639-3.124-1.639
			c-1.365,0-2.406,0.493-3.123,1.478C113.008,446.699,112.65,448.123,112.65,449.985z"/>
		<path d="M141.922,451.039h-11.601v0.117c0,2.097,0.395,3.679,1.185,4.747c0.79,1.068,1.956,1.602,3.497,1.602
			c1.18,0,2.148-0.31,2.904-0.929s1.285-1.538,1.587-2.758h2.165c-0.429,1.707-1.222,2.989-2.377,3.848
			c-1.156,0.858-2.675,1.287-4.557,1.287c-2.272,0-4.099-0.748-5.479-2.245c-1.38-1.497-2.07-3.484-2.07-5.962
			c0-2.457,0.678-4.438,2.034-5.939c1.355-1.501,3.135-2.253,5.339-2.253c2.351,0,4.155,0.725,5.413,2.173
			C141.22,446.174,141.874,448.279,141.922,451.039z M138.748,449.488c-0.059-1.813-0.441-3.182-1.148-4.104
			s-1.724-1.383-3.05-1.383c-1.239,0-2.214,0.464-2.926,1.391s-1.146,2.292-1.302,4.096H138.748z"/>
		<path d="M144.644,458.529v-1.551h2.428v-12.435h-2.575v-1.565h5.267v2.765c0.498-1.053,1.144-1.848,1.938-2.385
			c0.795-0.536,1.719-0.805,2.772-0.805c1.717,0,2.979,0.493,3.789,1.478c0.81,0.985,1.214,2.521,1.214,4.608v8.339h2.399v1.551
			h-7.432v-1.551h2.326v-7.49c0-1.901-0.234-3.206-0.702-3.913s-1.292-1.061-2.472-1.061c-1.249,0-2.2,0.456-2.853,1.367
			c-0.653,0.912-0.98,2.241-0.98,3.987v7.109h2.341v1.551H144.644z"/>
		<path d="M164.027,449.356h7.49v2.282h-7.49V449.356z"/>
		<path d="M188.356,446.006c0.517-1.142,1.178-2.002,1.982-2.582s1.743-0.871,2.816-0.871c1.628,0,2.843,0.505,3.643,1.515
			c0.799,1.01,1.2,2.533,1.2,4.571v8.339h2.428v1.551h-7.461v-1.551h2.341v-8.031c0-1.59-0.234-2.722-0.702-3.395
			c-0.468-0.673-1.244-1.009-2.326-1.009c-1.2,0-2.114,0.453-2.743,1.36c-0.629,0.907-0.943,2.229-0.943,3.965v7.109h2.34v1.551
			h-7.373v-1.551h2.341v-8.134c0-1.551-0.234-2.655-0.702-3.313s-1.244-0.987-2.326-0.987c-1.2,0-2.114,0.453-2.743,1.36
			c-0.629,0.907-0.943,2.229-0.943,3.965v7.109h2.341v1.551h-7.461v-1.551h2.428v-12.464h-2.575v-1.536h5.267v2.765
			c0.498-1.033,1.131-1.823,1.902-2.37c0.771-0.546,1.643-0.819,2.619-0.819c1.209,0,2.219,0.301,3.028,0.9
			C187.542,444.053,188.083,444.904,188.356,446.006z"/>
		<path d="M207.594,456.978h2.545v1.551h-7.812v-1.551h2.575v-12.435h-2.575v-1.565h5.267V456.978z M204.156,438.15
			c0-0.448,0.163-0.838,0.49-1.17c0.327-0.332,0.719-0.497,1.178-0.497c0.448,0,0.836,0.165,1.163,0.497
			c0.327,0.332,0.49,0.722,0.49,1.17c0,0.459-0.161,0.849-0.482,1.171c-0.322,0.321-0.712,0.482-1.17,0.482
			c-0.458,0-0.851-0.161-1.178-0.482C204.319,438.999,204.156,438.609,204.156,438.15z"/>
		<path d="M226.553,456.978h2.575v1.551h-5.267V456.1c-0.527,0.976-1.197,1.695-2.012,2.158s-1.821,0.694-3.021,0.694
			c-1.912,0-3.475-0.758-4.689-2.274s-1.821-3.494-1.821-5.933c0-2.438,0.604-4.412,1.814-5.925
			c1.209-1.512,2.774-2.268,4.696-2.268c1.199,0,2.206,0.232,3.021,0.695s1.485,1.183,2.012,2.158v-8.091h-2.545v-1.55h5.237
			V456.978z M223.861,451.521v-1.536c0-1.862-0.358-3.286-1.075-4.271c-0.717-0.984-1.758-1.478-3.124-1.478
			c-1.385,0-2.431,0.547-3.138,1.639c-0.708,1.093-1.061,2.716-1.061,4.871c0,2.146,0.353,3.77,1.061,4.872
			c0.707,1.103,1.753,1.653,3.138,1.653c1.366,0,2.407-0.49,3.124-1.471S223.861,453.394,223.861,451.521z"/>
	</g>
	<g>
		<path d="M122.467,605.003c-2.263,0-4.082-0.748-5.457-2.245c-1.375-1.497-2.062-3.484-2.062-5.962
			c0-2.477,0.685-4.462,2.055-5.954c1.371-1.492,3.192-2.238,5.464-2.238s4.094,0.746,5.464,2.238s2.056,3.478,2.056,5.954
			c0,2.478-0.686,4.465-2.056,5.962S124.739,605.003,122.467,605.003z M122.467,603.555c1.443,0,2.533-0.57,3.27-1.711
			c0.736-1.142,1.104-2.824,1.104-5.048s-0.368-3.903-1.104-5.039c-0.736-1.137-1.826-1.705-3.27-1.705s-2.534,0.568-3.27,1.705
			c-0.737,1.136-1.104,2.815-1.104,5.039s0.37,3.906,1.112,5.048C119.945,602.985,121.033,603.555,122.467,603.555z"/>
		<path d="M134.946,590.594h-2.589v-1.565h5.281v2.429c0.526-0.976,1.197-1.695,2.011-2.158s1.821-0.695,3.021-0.695
			c1.912,0,3.472,0.756,4.681,2.268c1.209,1.513,1.814,3.487,1.814,5.925c0,2.438-0.605,4.416-1.814,5.933
			c-1.209,1.517-2.77,2.274-4.681,2.274c-1.2,0-2.207-0.231-3.021-0.694s-1.485-1.183-2.011-2.158v7.096h2.545v1.565h-7.827v-1.565
			h2.589V590.594z M137.638,596.036v1.536c0,1.873,0.358,3.299,1.075,4.279s1.758,1.471,3.123,1.471
			c1.375,0,2.416-0.551,3.124-1.653c0.707-1.103,1.061-2.726,1.061-4.872c0-2.155-0.354-3.778-1.061-4.871
			c-0.708-1.092-1.748-1.639-3.124-1.639c-1.365,0-2.406,0.493-3.123,1.478C137.996,592.75,137.638,594.173,137.638,596.036z"/>
		<path d="M166.91,597.089H155.31v0.117c0,2.097,0.395,3.679,1.185,4.747c0.79,1.068,1.956,1.602,3.497,1.602
			c1.18,0,2.148-0.31,2.904-0.929s1.285-1.538,1.587-2.758h2.165c-0.429,1.707-1.222,2.989-2.377,3.848
			c-1.156,0.858-2.675,1.287-4.557,1.287c-2.272,0-4.099-0.748-5.479-2.245c-1.38-1.497-2.07-3.484-2.07-5.962
			c0-2.457,0.678-4.438,2.034-5.939c1.355-1.501,3.135-2.253,5.339-2.253c2.351,0,4.155,0.725,5.413,2.173
			C166.208,592.225,166.861,594.33,166.91,597.089z M163.736,595.539c-0.059-1.813-0.441-3.182-1.148-4.104s-1.724-1.383-3.05-1.383
			c-1.239,0-2.214,0.464-2.926,1.391s-1.146,2.292-1.302,4.096H163.736z"/>
		<path d="M169.632,604.58v-1.551h2.428v-12.435h-2.575v-1.565h5.267v2.765c0.498-1.053,1.144-1.848,1.938-2.385
			c0.795-0.536,1.719-0.805,2.772-0.805c1.717,0,2.979,0.493,3.789,1.478c0.81,0.985,1.214,2.521,1.214,4.608v8.339h2.399v1.551
			h-7.432v-1.551h2.326v-7.49c0-1.901-0.234-3.206-0.702-3.913s-1.292-1.061-2.472-1.061c-1.249,0-2.2,0.456-2.853,1.367
			c-0.653,0.912-0.98,2.241-0.98,3.987v7.109h2.341v1.551H169.632z"/>
	</g>
	<g>
		<path d="M170.895,104.979h-1.419c-0.01-0.731-0.217-1.287-0.622-1.667s-0.993-0.571-1.763-0.571c-1.005,0-1.712,0.276-2.122,0.827
			c-0.41,0.551-0.614,1.534-0.614,2.948v2.004h4.345v1.565h-4.345v12.435h3.453v1.551h-8.719v-1.551h2.575v-12.435h-2.575v-1.565
			h2.575v-1.946c0-1.736,0.451-3.048,1.354-3.936c0.902-0.887,2.226-1.331,3.972-1.331c0.653,0,1.307,0.059,1.96,0.176
			c0.653,0.117,1.302,0.297,1.945,0.541V104.979z"/>
		<path d="M183.418,108.491v3.891h-1.551c-0.049-0.77-0.264-1.346-0.644-1.726c-0.38-0.38-0.936-0.571-1.667-0.571
			c-1.327,0-2.343,0.459-3.05,1.375s-1.061,2.233-1.061,3.95v7.11h3.116v1.551h-8.236v-1.551h2.428v-12.464h-2.575v-1.536h5.267
			v2.765c0.527-1.083,1.205-1.885,2.034-2.406c0.829-0.522,1.838-0.783,3.028-0.783c0.439,0,0.9,0.034,1.383,0.103
			C182.372,108.267,182.881,108.364,183.418,108.491z"/>
		<path d="M192.43,124.495c-2.263,0-4.082-0.749-5.457-2.246c-1.375-1.497-2.062-3.484-2.062-5.961c0-2.477,0.685-4.462,2.055-5.954
			c1.371-1.492,3.192-2.238,5.464-2.238s4.094,0.746,5.464,2.238s2.056,3.477,2.056,5.954c0,2.478-0.686,4.464-2.056,5.961
			S194.702,124.495,192.43,124.495z M192.43,123.047c1.443,0,2.533-0.571,3.27-1.712s1.104-2.823,1.104-5.047
			s-0.368-3.904-1.104-5.04c-0.736-1.136-1.826-1.704-3.27-1.704s-2.534,0.568-3.27,1.704c-0.737,1.136-1.104,2.816-1.104,5.04
			s0.37,3.906,1.112,5.047C189.908,122.476,190.996,123.047,192.43,123.047z"/>
		<path d="M202.685,124.071v-1.551h2.428v-12.435h-2.575v-1.565h5.267v2.765c0.498-1.053,1.144-1.848,1.938-2.384
			c0.795-0.537,1.719-0.805,2.772-0.805c1.717,0,2.979,0.493,3.789,1.478c0.81,0.985,1.214,2.521,1.214,4.608v8.338h2.399v1.551
			h-7.432v-1.551h2.326v-7.49c0-1.902-0.234-3.206-0.702-3.913s-1.292-1.061-2.472-1.061c-1.249,0-2.2,0.456-2.853,1.368
			s-0.98,2.241-0.98,3.986v7.11h2.341v1.551H202.685z"/>
		<path d="M223.985,110.085h-2.37v-1.565h2.37v-4.828h2.707v4.828h5.062v1.565h-5.062v9.875c0,1.316,0.126,2.16,0.38,2.531
			c0.253,0.371,0.722,0.556,1.404,0.556c0.702,0,1.214-0.207,1.536-0.622c0.322-0.414,0.493-1.084,0.512-2.011h2.033
			c-0.078,1.414-0.463,2.448-1.156,3.101c-0.692,0.653-1.746,0.98-3.16,0.98c-1.551,0-2.648-0.344-3.292-1.031
			c-0.644-0.688-0.966-1.855-0.966-3.504V110.085z"/>
	</g>
	<g>
		<path d="M446.618,119.404c-0.38,1.658-1.111,2.921-2.194,3.789c-1.082,0.868-2.481,1.302-4.198,1.302
			c-2.263,0-4.082-0.749-5.457-2.246c-1.375-1.497-2.062-3.484-2.062-5.961c0-2.487,0.688-4.474,2.062-5.961
			c1.375-1.487,3.194-2.231,5.457-2.231c0.985,0,1.965,0.115,2.94,0.344s1.955,0.578,2.94,1.046v3.979h-1.565
			c-0.205-1.365-0.65-2.36-1.339-2.984c-0.688-0.624-1.67-0.936-2.947-0.936c-1.454,0-2.551,0.563-3.292,1.689
			c-0.742,1.126-1.112,2.812-1.112,5.055s0.368,3.93,1.104,5.062c0.736,1.132,1.836,1.697,3.299,1.697
			c1.16,0,2.087-0.302,2.779-0.907c0.692-0.604,1.165-1.516,1.419-2.735H446.618z"/>
		<path d="M464.231,116.581H452.63v0.117c0,2.097,0.395,3.679,1.185,4.747s1.955,1.602,3.497,1.602c1.18,0,2.147-0.31,2.903-0.929
			c0.756-0.619,1.285-1.538,1.587-2.757h2.166c-0.43,1.707-1.222,2.989-2.378,3.847c-1.155,0.858-2.675,1.288-4.557,1.288
			c-2.272,0-4.099-0.749-5.479-2.246c-1.381-1.497-2.07-3.484-2.07-5.961c0-2.458,0.678-4.438,2.033-5.939s3.136-2.253,5.34-2.253
			c2.351,0,4.155,0.724,5.413,2.172S464.182,113.821,464.231,116.581z M461.056,115.03c-0.058-1.814-0.44-3.182-1.147-4.104
			c-0.708-0.921-1.725-1.382-3.051-1.382c-1.238,0-2.214,0.463-2.926,1.39c-0.712,0.927-1.146,2.292-1.302,4.096H461.056z"/>
		<path d="M466.953,124.071v-1.551h2.429v-12.435h-2.574v-1.565h5.266v2.765c0.498-1.053,1.144-1.848,1.938-2.384
			c0.795-0.537,1.72-0.805,2.772-0.805c1.717,0,2.979,0.493,3.789,1.478c0.81,0.985,1.214,2.521,1.214,4.608v8.338h2.399v1.551
			h-7.432v-1.551h2.326v-7.49c0-1.902-0.234-3.206-0.702-3.913s-1.292-1.061-2.473-1.061c-1.248,0-2.199,0.456-2.853,1.368
			s-0.98,2.241-0.98,3.986v7.11h2.341v1.551H466.953z"/>
		<path d="M488.253,110.085h-2.37v-1.565h2.37v-4.828h2.706v4.828h5.062v1.565h-5.062v9.875c0,1.316,0.127,2.16,0.381,2.531
			c0.253,0.371,0.721,0.556,1.404,0.556c0.702,0,1.214-0.207,1.536-0.622c0.321-0.414,0.492-1.084,0.512-2.011h2.033
			c-0.078,1.414-0.463,2.448-1.155,3.101c-0.693,0.653-1.746,0.98-3.16,0.98c-1.551,0-2.647-0.344-3.292-1.031
			c-0.644-0.688-0.965-1.855-0.965-3.504V110.085z"/>
		<path d="M511.382,108.491v3.891h-1.551c-0.049-0.77-0.264-1.346-0.644-1.726c-0.381-0.38-0.937-0.571-1.668-0.571
			c-1.326,0-2.343,0.459-3.05,1.375c-0.708,0.917-1.062,2.233-1.062,3.95v7.11h3.116v1.551h-8.236v-1.551h2.429v-12.464h-2.574
			v-1.536h5.266v2.765c0.527-1.083,1.205-1.885,2.034-2.406c0.828-0.522,1.838-0.783,3.028-0.783c0.438,0,0.899,0.034,1.382,0.103
			C510.336,108.267,510.845,108.364,511.382,108.491z"/>
		<path d="M525.997,114.357v8.163h2.399v1.551h-5.091v-1.682c-0.595,0.722-1.282,1.253-2.062,1.594s-1.692,0.512-2.736,0.512
			c-1.726,0-3.096-0.458-4.11-1.375c-1.015-0.917-1.521-2.156-1.521-3.716c0-1.609,0.58-2.858,1.741-3.745
			c1.16-0.888,2.799-1.332,4.915-1.332h3.774v-1.068c0-1.18-0.358-2.094-1.075-2.743c-0.717-0.648-1.724-0.973-3.021-0.973
			c-1.073,0-1.927,0.244-2.561,0.731s-1.029,1.209-1.185,2.165h-1.391v-3.145c0.937-0.4,1.846-0.7,2.729-0.9
			c0.883-0.2,1.743-0.3,2.582-0.3c2.155,0,3.797,0.534,4.923,1.602C525.434,110.766,525.997,112.319,525.997,114.357z
			 M523.305,119.185v-3.292h-3.467c-1.337,0-2.331,0.288-2.984,0.863c-0.654,0.575-0.98,1.458-0.98,2.648
			c0,1.083,0.331,1.94,0.995,2.575c0.663,0.634,1.56,0.951,2.691,0.951c1.121,0,2.026-0.346,2.714-1.039
			S523.305,120.296,523.305,119.185z"/>
		<path d="M535.389,122.52h2.545v1.551h-7.826v-1.551h2.589v-19.662h-2.589v-1.551h5.281V122.52z"/>
	</g>
	<g>
		<path d="M743.668,122.52v-19.662h-2.589v-1.551h5.281v9.641c0.526-0.975,1.197-1.694,2.012-2.158
			c0.813-0.463,1.821-0.695,3.021-0.695c1.911,0,3.472,0.756,4.682,2.268c1.209,1.512,1.813,3.487,1.813,5.925
			s-0.604,4.416-1.813,5.932c-1.21,1.517-2.771,2.275-4.682,2.275c-1.199,0-2.207-0.232-3.021-0.695
			c-0.814-0.463-1.485-1.183-2.012-2.158v2.428h-5.281v-1.551H743.668z M746.361,117.063c0,1.873,0.358,3.299,1.075,4.279
			c0.717,0.98,1.758,1.47,3.123,1.47c1.375,0,2.416-0.551,3.123-1.653s1.062-2.726,1.062-4.872c0-2.155-0.354-3.779-1.062-4.872
			s-1.748-1.639-3.123-1.639c-1.365,0-2.406,0.493-3.123,1.478c-0.717,0.985-1.075,2.409-1.075,4.272V117.063z"/>
		<path d="M774.009,114.357v8.163h2.399v1.551h-5.091v-1.682c-0.595,0.722-1.282,1.253-2.062,1.594s-1.692,0.512-2.736,0.512
			c-1.726,0-3.096-0.458-4.11-1.375c-1.015-0.917-1.521-2.156-1.521-3.716c0-1.609,0.58-2.858,1.741-3.745
			c1.16-0.888,2.799-1.332,4.915-1.332h3.774v-1.068c0-1.18-0.358-2.094-1.075-2.743c-0.717-0.648-1.724-0.973-3.021-0.973
			c-1.073,0-1.927,0.244-2.561,0.731s-1.029,1.209-1.185,2.165h-1.391v-3.145c0.937-0.4,1.846-0.7,2.729-0.9
			c0.883-0.2,1.743-0.3,2.582-0.3c2.155,0,3.797,0.534,4.923,1.602C773.447,110.766,774.009,112.319,774.009,114.357z
			 M771.318,119.185v-3.292h-3.467c-1.337,0-2.331,0.288-2.984,0.863c-0.654,0.575-0.98,1.458-0.98,2.648
			c0,1.083,0.331,1.94,0.995,2.575c0.663,0.634,1.56,0.951,2.691,0.951c1.121,0,2.026-0.346,2.714-1.039
			S771.318,120.296,771.318,119.185z"/>
		<path d="M792.662,119.404c-0.38,1.658-1.111,2.921-2.194,3.789c-1.082,0.868-2.481,1.302-4.198,1.302
			c-2.263,0-4.082-0.749-5.457-2.246s-2.062-3.484-2.062-5.961c0-2.487,0.688-4.474,2.062-5.961s3.194-2.231,5.457-2.231
			c0.985,0,1.965,0.115,2.94,0.344s1.955,0.578,2.94,1.046v3.979h-1.565c-0.205-1.365-0.65-2.36-1.339-2.984
			c-0.688-0.624-1.67-0.936-2.947-0.936c-1.453,0-2.551,0.563-3.292,1.689s-1.111,2.812-1.111,5.055s0.368,3.93,1.104,5.062
			c0.736,1.132,1.836,1.697,3.299,1.697c1.16,0,2.087-0.302,2.779-0.907c0.692-0.604,1.165-1.516,1.419-2.735H792.662z"/>
		<path d="M802.611,124.071h-7.549v-1.551h2.428v-19.662h-2.589v-1.551h5.281v14.819l6.554-6.042h-2.238v-1.565h7.037v1.565h-2.663
			l-4.623,4.272l5.91,8.163h2.238v1.551h-7.665v-1.551h2.224l-4.652-6.393l-2.121,1.975v4.418h2.429V124.071z"/>
	</g>
	<g>
		<path d="M223.628,172.814l1.365-3.453l-7.744-18.999h-2.36v-2.087h9.539v2.087h-3.316l5.832,14.259l5.832-14.259h-3.101v-2.087
			h7.783v2.087h-2.321l-9.499,23.329c-0.65,1.612-1.373,2.714-2.166,3.307c-0.793,0.591-1.912,0.887-3.355,0.887
			c-0.611,0-1.238-0.052-1.882-0.156c-0.644-0.104-1.291-0.254-1.94-0.449v-3.96h1.833c0.078,0.884,0.302,1.519,0.673,1.902
			c0.371,0.384,0.946,0.576,1.726,0.576c0.715,0,1.291-0.199,1.727-0.595C222.689,174.807,223.147,174.011,223.628,172.814z"/>
	</g>
	<path d="M300.263,305c0,5.056-4.1,9.153-9.156,9.153c-5.056,0-9.154-4.097-9.154-9.153c0-5.055,4.098-9.155,9.154-9.155
		C296.163,295.844,300.263,299.944,300.263,305L300.263,305z M300.263,305"/>
	<path d="M340.208,215.266c0,5.056-4.1,9.153-9.155,9.153c-5.056,0-9.154-4.098-9.154-9.153s4.098-9.156,9.154-9.156
		C336.108,206.11,340.208,210.21,340.208,215.266L340.208,215.266z M340.208,215.266"/>
	<path d="M661.206,215.266c0,5.056-4.1,9.153-9.154,9.153c-5.057,0-9.154-4.098-9.154-9.153s4.098-9.156,9.154-9.156
		C657.106,206.11,661.206,210.21,661.206,215.266L661.206,215.266z M661.206,215.266"/>
	<g>
		<path d="M270.933,305.5h-15.468v0.156c0,2.796,0.527,4.906,1.58,6.33c1.053,1.424,2.607,2.136,4.662,2.136
			c1.573,0,2.864-0.413,3.872-1.239c1.008-0.826,1.713-2.051,2.117-3.677h2.887c-0.572,2.276-1.629,3.986-3.17,5.13
			c-1.541,1.145-3.566,1.716-6.076,1.716c-3.03,0-5.465-0.998-7.305-2.994c-1.84-1.996-2.76-4.646-2.76-7.949
			c0-3.277,0.903-5.917,2.711-7.919c1.808-2.002,4.181-3.004,7.12-3.004c3.134,0,5.54,0.966,7.217,2.896
			C269.997,299.014,270.868,301.819,270.933,305.5z M266.7,303.432c-0.078-2.418-0.588-4.242-1.531-5.471s-2.298-1.843-4.067-1.843
			c-1.651,0-2.952,0.618-3.901,1.853c-0.95,1.235-1.528,3.056-1.736,5.461H266.7z"/>
	</g>
	<g>
		<path d="M330.635,297.502c0.806,0.962,1.417,2.087,1.833,3.375c0.416,1.288,0.624,2.699,0.624,4.233
			c0,3.303-0.914,5.953-2.741,7.949s-4.255,2.994-7.285,2.994c-1.223,0-2.354-0.172-3.394-0.517
			c-1.041-0.344-1.997-0.868-2.867-1.57l-2.79,3.355l-1.482-1.229l2.906-3.472c-0.793-1.001-1.392-2.129-1.794-3.384
			c-0.403-1.255-0.604-2.63-0.604-4.125c0-3.303,0.913-5.949,2.74-7.939s4.255-2.984,7.286-2.984c1.222,0,2.354,0.166,3.394,0.498
			c1.04,0.332,1.977,0.822,2.809,1.473l2.711-3.238l1.482,1.229L330.635,297.502z M327.436,298.341
			c-0.494-0.741-1.105-1.297-1.833-1.668c-0.729-0.371-1.574-0.556-2.536-0.556c-1.912,0-3.362,0.761-4.35,2.282
			s-1.482,3.758-1.482,6.71c0,0.936,0.049,1.788,0.146,2.555c0.098,0.768,0.237,1.47,0.419,2.106L327.436,298.341z M318.678,311.78
			c0.52,0.793,1.141,1.382,1.863,1.765c0.722,0.384,1.563,0.576,2.526,0.576c1.912,0,3.361-0.764,4.35-2.292s1.482-3.768,1.482-6.72
			c0-0.988-0.049-1.875-0.146-2.663c-0.098-0.787-0.244-1.512-0.439-2.175L318.678,311.78z"/>
	</g>
	<g>
		<path d="M307.344,223.541h3.394v2.067h-10.416v-2.067h3.433v-16.58h-3.433v-2.087h10.416v2.009h-3.394V223.541z"/>
	</g>
	<g>
		<path d="M355.367,225.608v-2.067h3.453v-5.95l-6.554-10.552h-3.375v-2.165h10.748v2.165h-3.628l5.11,8.271l5.11-8.271h-3.472
			v-2.165h9.246v2.165h-3.219l-6.378,10.279v6.223h3.394v2.067H355.367z"/>
	</g>
	<g>
		<path d="M691.234,206.961h-5.52c1.989,0.833,3.406,2.051,4.252,3.657c0.846,1.606,1.268,3.43,1.268,5.472
			c0,1.404-0.279,2.75-0.838,4.038c-0.56,1.287-1.359,2.406-2.399,3.355c-0.937,0.871-2.019,1.538-3.248,1.999
			c-1.229,0.461-2.532,0.692-3.911,0.692c-1.392,0-2.691-0.228-3.9-0.683c-1.21-0.455-2.289-1.125-3.238-2.009
			c-1.066-0.976-1.876-2.094-2.429-3.355s-0.829-2.607-0.829-4.038c0-2.042,0.423-3.865,1.269-5.472
			c0.845-1.606,2.269-2.825,4.271-3.657h-5.521v-2.087h8.681v2.087c-1.548,0.598-2.719,1.72-3.512,3.365s-1.189,3.462-1.189,5.452
			c0,2.406,0.585,4.337,1.756,5.793c1.183,1.457,2.73,2.185,4.642,2.185c1.912,0,3.453-0.728,4.623-2.185
			c1.184-1.457,1.775-3.387,1.775-5.793c0-2.002-0.397-3.823-1.19-5.461s-1.957-2.757-3.491-3.355v-2.087h8.68V206.961z"/>
	</g>
	<path d="M395.968,448.976c0,5.056-4.1,9.153-9.155,9.153c-5.056,0-9.154-4.098-9.154-9.153s4.098-9.156,9.154-9.156
		C391.868,439.82,395.968,443.92,395.968,448.976L395.968,448.976z M395.968,448.976"/>
	<path d="M445.488,521.382c0,5.056-4.1,9.153-9.155,9.153c-5.056,0-9.154-4.098-9.154-9.153s4.098-9.156,9.154-9.156
		C441.388,512.226,445.488,516.327,445.488,521.382L445.488,521.382z M445.488,521.382"/>
	<path d="M615.602,521.382c0,5.056-4.1,9.153-9.155,9.153s-9.154-4.098-9.154-9.153s4.099-9.156,9.154-9.156
		S615.602,516.327,615.602,521.382L615.602,521.382z M615.602,521.382"/>
	<path d="M565.749,375.325c0,5.056-4.1,9.153-9.155,9.153s-9.154-4.098-9.154-9.153s4.099-9.156,9.154-9.156
		S565.749,370.269,565.749,375.325L565.749,375.325z M565.749,375.325"/>
	<g>
		<path d="M348.591,443.663c0-1.678,0.637-2.958,1.912-3.843c1.274-0.871,3.186-1.307,5.734-1.307c0.702,0,1.729,0.104,3.082,0.312
			c1.352,0.221,2.757,0.533,4.213,0.936v4.312h-1.288c-0.17-1.157-0.763-2.029-1.781-2.614c-1.018-0.585-2.19-0.878-3.519-0.878
			c-3.293,0-4.94,1.086-4.94,3.258c0,2.483,1.67,3.726,5.013,3.726h1.814v2.048h-1.794c-2.055,0-3.583,0.403-4.584,1.21
			c-0.962,0.78-1.443,1.924-1.443,3.433c0,1.027,0.345,1.866,1.034,2.517c1.131,1.066,2.621,1.599,4.467,1.599
			c1.509,0,2.809-0.344,3.901-1.033s1.704-1.697,1.833-3.023h2.106v4.506c-1.378,0.468-2.77,0.819-4.174,1.053
			c-1.353,0.234-2.549,0.352-3.589,0.352c-2.913,0-5.169-0.514-6.769-1.541c-1.586-1.027-2.373-2.517-2.36-4.467
			c0-1.756,0.683-3.141,2.048-4.154c0.923-0.702,2.165-1.223,3.726-1.561c-1.066-0.247-1.951-0.599-2.653-1.054
			C349.254,446.576,348.591,445.314,348.591,443.663z"/>
	</g>
	<g>
		<path d="M441.494,449.475h-15.468v0.156c0,2.796,0.527,4.906,1.58,6.33s2.607,2.136,4.662,2.136c1.573,0,2.864-0.413,3.872-1.239
			c1.007-0.825,1.713-2.051,2.116-3.677h2.887c-0.572,2.276-1.628,3.986-3.169,5.131c-1.541,1.144-3.56,1.716-6.057,1.716
			c-1.69,0-3.208-0.318-4.555-0.955c-1.346-0.638-2.494-1.587-3.442-2.849c-0.897,1.249-2.019,2.194-3.365,2.839
			c-1.346,0.644-2.864,0.965-4.555,0.965c-3.017,0-5.442-0.998-7.276-2.994s-2.75-4.646-2.75-7.948s0.913-5.949,2.74-7.938
			c1.827-1.99,4.255-2.984,7.286-2.984c1.716,0,3.244,0.321,4.584,0.965c1.339,0.644,2.464,1.59,3.374,2.838
			c0.949-1.248,2.074-2.194,3.375-2.838s2.744-0.965,4.331-0.965c3.147,0,5.556,0.965,7.227,2.896
			C440.561,442.99,441.429,445.795,441.494,449.475z M416,458.097c1.924,0,3.377-0.761,4.359-2.282s1.473-3.765,1.473-6.729
			s-0.491-5.205-1.473-6.72s-2.435-2.272-4.359-2.272c-1.925,0-3.378,0.758-4.36,2.272s-1.473,3.755-1.473,6.72
			s0.494,5.208,1.482,6.729S414.088,458.097,416,458.097z M437.261,447.408c-0.078-2.419-0.588-4.242-1.531-5.472
			c-0.943-1.229-2.299-1.843-4.067-1.843c-1.652,0-2.952,0.618-3.901,1.853c-0.949,1.236-1.528,3.057-1.736,5.462H437.261z"/>
	</g>
	<path d="M495.007,593.789c0,5.057-4.1,9.153-9.155,9.153c-5.056,0-9.154-4.097-9.154-9.153c0-5.055,4.098-9.156,9.154-9.156
		C490.908,584.632,495.007,588.734,495.007,593.789L495.007,593.789z M495.007,593.789"/>
	<g>
		<path d="M463.017,591.322v10.885h3.199v2.067h-6.788v-2.243c-0.793,0.963-1.71,1.671-2.75,2.126
			c-1.041,0.455-2.256,0.683-3.647,0.683c-2.302,0-4.129-0.611-5.481-1.833c-1.353-1.223-2.028-2.874-2.028-4.955
			c0-2.146,0.773-3.81,2.321-4.993s3.732-1.775,6.554-1.775h5.032v-1.424c0-1.573-0.478-2.792-1.434-3.657
			c-0.956-0.864-2.298-1.297-4.028-1.297c-1.431,0-2.568,0.325-3.414,0.976s-1.372,1.612-1.58,2.887h-1.853v-4.194
			c1.249-0.532,2.461-0.933,3.638-1.199c1.177-0.267,2.324-0.399,3.442-0.399c2.874,0,5.062,0.712,6.564,2.136
			S463.017,588.604,463.017,591.322z M459.428,597.759v-4.389h-4.623c-1.782,0-3.108,0.384-3.979,1.15
			c-0.871,0.768-1.307,1.944-1.307,3.53c0,1.443,0.442,2.588,1.326,3.434c0.884,0.845,2.081,1.268,3.589,1.268
			c1.495,0,2.702-0.461,3.618-1.385C458.97,600.445,459.428,599.242,459.428,597.759z"/>
	</g>
	<g>
		<path d="M533.707,604.274h-17.067c-3.563,0-6.346-0.917-8.349-2.75c-2.002-1.834-3.004-4.389-3.004-7.666
			c0-3.238,0.995-5.767,2.984-7.588c2.003-1.82,4.792-2.73,8.368-2.73h16.834v4.623h-1.893l0.02-2.536h-9.362v6.397h6.671
			l-0.02-2.418h1.853v6.885h-1.853l0.02-2.398h-6.671v8.114h9.577v-2.536h1.892V604.274z M517.224,585.783
			c-2.366-0.078-4.259,0.644-5.676,2.165c-1.353,1.456-2.028,3.485-2.028,6.086c0,2.627,0.676,4.668,2.028,6.125
			c1.326,1.443,3.219,2.178,5.676,2.204l0.547,0.02l0.857-0.176v-16.58l-0.896,0.176L517.224,585.783z"/>
	</g>
	<path d="M784.629,593.789c0,5.057-4.101,9.153-9.156,9.153c-5.057,0-9.153-4.097-9.153-9.153c0-5.055,4.097-9.156,9.153-9.156
		C780.529,584.632,784.629,588.734,784.629,593.789L784.629,593.789z M784.629,593.789"/>
	<g>
		<path d="M755.6,602.187h3.432v2.087h-7.021v-3.238c-0.701,1.301-1.596,2.26-2.682,2.877c-1.086,0.618-2.428,0.927-4.027,0.927
			c-2.549,0-4.633-1.011-6.252-3.033c-1.619-2.021-2.43-4.658-2.43-7.909s0.807-5.884,2.42-7.9c1.611-2.015,3.699-3.022,6.262-3.022
			c1.6,0,2.941,0.309,4.027,0.926c1.086,0.618,1.98,1.577,2.682,2.877v-3.237h7.021v2.087H755.6V602.187z M752.01,594.931v-2.049
			c0-2.483-0.479-4.382-1.434-5.695s-2.344-1.97-4.164-1.97c-1.848,0-3.242,0.728-4.184,2.185c-0.943,1.456-1.414,3.621-1.414,6.495
			c0,2.861,0.471,5.026,1.414,6.495c0.941,1.47,2.336,2.204,4.184,2.204c1.82,0,3.209-0.653,4.164-1.96
			S752.01,597.427,752.01,594.931z"/>
	</g>
	<g>
		<path d="M804.428,601.036v3.238h-7.022v-2.087h3.434v-16.58h-3.434v-2.067h7.022v3.237c0.702-1.3,1.6-2.256,2.691-2.867
			c1.079-0.624,2.419-0.936,4.019-0.936c2.549,0,4.629,1.014,6.242,3.042c1.625,2.017,2.438,4.649,2.438,7.9
			s-0.806,5.884-2.418,7.899c-1.613,2.016-3.7,3.023-6.262,3.023c-1.6,0-2.939-0.306-4.019-0.917
			C806.028,603.298,805.13,602.336,804.428,601.036z M804.428,592.882v2.049c0,2.483,0.48,4.382,1.443,5.695
			c0.949,1.313,2.334,1.97,4.154,1.97c1.847,0,3.245-0.728,4.194-2.185c0.937-1.456,1.404-3.621,1.404-6.495
			c0-2.86-0.468-5.026-1.404-6.495c-0.949-1.47-2.348-2.204-4.194-2.204c-1.82,0-3.205,0.656-4.154,1.97
			C804.909,588.488,804.428,590.386,804.428,592.882z"/>
	</g>
	<g>
		<path d="M572.042,523.941v-10.884h-3.199v-2.067h6.788v2.243c0.793-0.962,1.71-1.671,2.751-2.126
			c1.04-0.455,2.256-0.683,3.647-0.683c2.302,0,4.128,0.611,5.48,1.833c1.353,1.223,2.029,2.874,2.029,4.954
			c0,2.146-0.774,3.811-2.321,4.994c-1.548,1.184-3.732,1.774-6.555,1.774h-5.032v1.424c0,1.574,0.481,2.797,1.443,3.668
			c0.949,0.857,2.289,1.287,4.019,1.287c1.431,0,2.568-0.325,3.413-0.976c0.846-0.65,1.372-1.612,1.58-2.887h1.854v4.193
			c-1.249,0.534-2.465,0.931-3.647,1.19c-1.171,0.272-2.315,0.409-3.434,0.409c-2.874,0-5.059-0.708-6.554-2.126
			C572.796,528.733,572.042,526.66,572.042,523.941z M575.631,517.504v4.389h4.623c1.781,0,3.107-0.383,3.979-1.15
			c0.871-0.768,1.307-1.944,1.307-3.531c0-1.443-0.442-2.587-1.326-3.433c-0.885-0.845-2.081-1.268-3.589-1.268
			c-1.496,0-2.705,0.462-3.629,1.385C576.086,514.82,575.631,516.022,575.631,517.504z"/>
	</g>
	<path d="M784.629,447.314c0,5.056-4.101,9.153-9.156,9.153c-5.057,0-9.153-4.098-9.153-9.153s4.097-9.156,9.153-9.156
		C780.529,438.158,784.629,442.258,784.629,447.314L784.629,447.314z M784.629,447.314"/>
	<g>
		<path d="M748.76,437.065l7.627,18.647h2.359v2.087h-9.537v-2.087h3.314l-5.832-14.259l-5.832,14.259h3.102v2.087h-7.783v-2.087
			h2.322l7.627-18.647H748.76z"/>
	</g>
	<g>
		<path d="M797.406,443.287c0.508-2.21,1.482-3.894,2.926-5.052c1.443-1.157,3.31-1.735,5.599-1.735
			c3.017,0,5.442,0.994,7.275,2.984c1.834,2.002,2.75,4.655,2.75,7.958c0,3.315-0.916,5.969-2.75,7.958
			c-1.833,1.977-4.259,2.965-7.275,2.965c-1.313,0-2.62-0.156-3.921-0.468c-1.301-0.299-2.607-0.761-3.921-1.385v-5.306h2.088
			c0.272,1.82,0.871,3.146,1.794,3.979c0.91,0.832,2.217,1.248,3.921,1.248c1.938,0,3.4-0.748,4.389-2.243
			c0.988-1.509,1.482-3.758,1.482-6.749s-0.494-5.24-1.482-6.749c-0.976-1.509-2.438-2.263-4.389-2.263
			c-1.548,0-2.783,0.403-3.706,1.209c-0.924,0.807-1.554,2.022-1.893,3.647H797.406z"/>
	</g>
	<g>
		<path d="M518.54,374.918h15.469v-0.155c0-2.796-0.527-4.909-1.58-6.34c-1.053-1.417-2.607-2.126-4.662-2.126
			c-1.572,0-2.867,0.409-3.881,1.229c-1.002,0.833-1.703,2.062-2.107,3.687h-2.887c0.572-2.275,1.625-3.985,3.16-5.13
			c1.547-1.144,3.576-1.716,6.086-1.716c3.029,0,5.461,1.001,7.295,3.004c1.846,1.989,2.77,4.636,2.77,7.938
			c0,3.276-0.904,5.917-2.711,7.919c-1.807,2.003-4.182,3.004-7.119,3.004c-3.135,0-5.539-0.969-7.217-2.906
			C519.477,381.402,518.606,378.599,518.54,374.918z M522.774,376.987c0.078,2.418,0.59,4.245,1.541,5.48
			c0.936,1.223,2.287,1.834,4.057,1.834c1.65,0,2.951-0.617,3.9-1.854c0.949-1.235,1.527-3.056,1.736-5.461H522.774z"/>
	</g>
	<path d="M784.629,302.503c0,5.056-4.101,9.154-9.156,9.154c-5.057,0-9.153-4.098-9.153-9.154c0-5.055,4.097-9.156,9.153-9.156
		C780.529,293.347,784.629,297.448,784.629,302.503L784.629,302.503z M784.629,302.503"/>
	<g>
		<path d="M737.44,293.094c1.145-0.897,2.445-1.346,3.9-1.346c1.457,0,3.135,1.339,5.033,4.018c1.912-2.64,4.18-3.959,6.807-3.959
			h0.059c0.625,0,1.133,0.371,1.521,1.112v1.463h-2.047v-0.371c0-0.611-0.307-0.917-0.918-0.917h-0.02
			c-0.885,0-2.275,1.45-4.174,4.35c1.236,2.002,2.236,3.81,3.004,5.422c1.262,2.653,1.893,4.759,1.893,6.32
			c0,1.014-0.273,1.801-0.82,2.36c-1.377,1.392-3.549,2.087-6.514,2.087c-1.898,0-3.576-0.695-5.033-2.087
			c-0.637-0.598-0.955-1.417-0.955-2.458c0-1.326,0.514-3.01,1.541-5.052c0.832-1.625,1.982-3.479,3.451-5.559
			c-1.988-3.55-3.303-5.325-3.939-5.325c-0.533,0-0.799,0.566-0.799,1.697v0.351h-1.99V293.094z M741.711,309.381
			c0,0.767,0.332,1.333,0.994,1.697c0.586,0.312,1.418,0.468,2.498,0.468c1.17,0,2.133-0.422,2.887-1.268
			c0.48-0.546,0.721-1.066,0.721-1.561c0-0.832-0.363-2.1-1.092-3.803c-0.572-1.327-1.365-2.913-2.379-4.76
			c-1.158,1.652-2.043,3.219-2.654,4.701C742.036,306.468,741.711,307.977,741.711,309.381z"/>
	</g>
	<g>
		<path d="M807.432,313.555c-3.017,0-5.442-0.998-7.275-2.994c-1.834-1.996-2.751-4.646-2.751-7.949
			c0-3.303,0.914-5.949,2.741-7.939c1.826-1.99,4.255-2.984,7.285-2.984c3.029,0,5.458,0.995,7.285,2.984s2.74,4.636,2.74,7.939
			c0,3.303-0.913,5.953-2.74,7.949S810.461,313.555,807.432,313.555z M807.432,311.625c1.924,0,3.377-0.761,4.359-2.282
			c0.981-1.521,1.473-3.765,1.473-6.729s-0.491-5.205-1.473-6.72c-0.982-1.515-2.436-2.272-4.359-2.272
			c-1.925,0-3.378,0.758-4.359,2.272c-0.982,1.515-1.473,3.755-1.473,6.72s0.494,5.208,1.482,6.729S805.52,311.625,807.432,311.625z
			"/>
	</g>
	<path d="M540.782,302.503c0,5.056-4.101,9.154-9.156,9.154s-9.153-4.098-9.153-9.154c0-5.055,4.098-9.156,9.153-9.156
		S540.782,297.448,540.782,302.503L540.782,302.503z M540.782,302.503"/>
	<g>
		<path d="M492.783,303.003c0.065-3.68,0.937-6.489,2.614-8.427c1.678-1.924,4.083-2.887,7.217-2.887
			c2.938,0,5.312,1.001,7.12,3.004c1.807,2.003,2.711,4.643,2.711,7.919c0,3.303-0.924,5.956-2.77,7.958
			c-1.834,1.99-4.266,2.984-7.296,2.984c-2.51,0-4.538-0.572-6.085-1.716c-1.535-1.144-2.588-2.854-3.16-5.13h2.887
			c0.403,1.625,1.105,2.848,2.106,3.667c1.015,0.833,2.309,1.249,3.882,1.249c2.055,0,3.608-0.715,4.662-2.146
			c1.053-1.417,1.58-3.523,1.58-6.32v-0.156H492.783z M497.016,300.935h11.235c-0.209-2.405-0.787-4.226-1.736-5.461
			s-2.25-1.853-3.901-1.853c-1.769,0-3.121,0.618-4.057,1.853C497.607,296.696,497.094,298.517,497.016,300.935z"/>
	</g>
	<g>
		<path d="M563.584,313.555c-3.017,0-5.442-0.995-7.275-2.984c-1.834-2.002-2.751-4.655-2.751-7.958c0-3.303,0.91-5.949,2.731-7.939
			c1.833-1.99,4.265-2.984,7.295-2.984c3.029,0,5.462,0.995,7.295,2.984c1.82,1.99,2.73,4.636,2.73,7.939
			c0,3.303-0.91,5.956-2.73,7.958C569.046,312.561,566.614,313.555,563.584,313.555z M557.772,301.872h11.625
			c-0.065-2.601-0.546-4.59-1.443-5.969c-0.988-1.521-2.445-2.282-4.369-2.282c-1.925,0-3.381,0.761-4.369,2.282
			C558.318,297.281,557.836,299.271,557.772,301.872z M563.584,311.625c1.924,0,3.381-0.761,4.369-2.282
			c0.819-1.288,1.294-3.088,1.424-5.403h-11.586c0.13,2.315,0.61,4.116,1.443,5.403
			C560.223,310.864,561.672,311.625,563.584,311.625z"/>
	</g>
	<path d="M590.715,448.146c0,5.056-4.099,9.153-9.154,9.153c-5.057,0-9.155-4.098-9.155-9.153c0-5.055,4.099-9.156,9.155-9.156
		C586.617,438.99,590.715,443.091,590.715,448.146L590.715,448.146z M590.715,448.146"/>
	<g>
		<path d="M553.504,439.75c-1.223,0-2.303,0.293-3.238,0.878c-0.938,0.599-1.482,1.477-1.639,2.634h-2.107v-4.331
			c1.457-0.402,2.861-0.715,4.215-0.936c1.352-0.208,2.379-0.312,3.08-0.312c2.549,0,4.461,0.436,5.736,1.307
			c1.273,0.885,1.91,2.165,1.91,3.843c0,1.651-0.662,2.913-1.988,3.784c-0.703,0.455-1.588,0.807-2.654,1.054
			c1.561,0.338,2.803,0.858,3.727,1.561c1.34,1.014,2.021,2.398,2.049,4.154c0,1.95-0.787,3.439-2.361,4.467
			c-1.625,1.04-3.881,1.554-6.768,1.541c-1.041,0-2.236-0.117-3.59-0.352c-1.404-0.233-2.775-0.585-4.115-1.053v-4.506h2.049
			c0,1.326,0.609,2.334,1.832,3.023c1.094,0.689,2.393,1.033,3.902,1.033c1.846,0,3.334-0.532,4.467-1.599
			c0.689-0.65,1.033-1.489,1.033-2.517c0-1.509-0.48-2.652-1.443-3.433c-1.002-0.807-2.529-1.21-4.584-1.21h-1.795v-2.048h1.814
			c3.342,0,5.014-1.242,5.014-3.726C558.049,440.835,556.534,439.75,553.504,439.75z"/>
	</g>
	<g>
		<path d="M600.994,448.254c0-7.282,3.992-10.923,11.977-10.923c2.926,0,5.078,0.497,6.457,1.492
			c1.378,0.994,2.067,2.408,2.067,4.242c0,1.248-0.491,2.334-1.473,3.257c-0.982,0.924-2.351,1.548-4.106,1.873
			c1.756,0.312,3.124,0.93,4.106,1.854c0.981,0.923,1.473,2.055,1.473,3.394c0,1.82-0.689,3.238-2.067,4.252
			c-1.353,1.001-3.505,1.502-6.457,1.502C604.986,459.197,600.994,455.549,600.994,448.254z M612.97,457.266
			c1.404,0,2.48-0.354,3.229-1.063c0.748-0.708,1.121-1.687,1.121-2.936c0-1.365-0.458-2.393-1.375-3.082
			c-0.916-0.688-2.272-1.033-4.066-1.033h-0.741v-1.932h0.741c1.794,0,3.15-0.344,4.066-1.033c0.917-0.689,1.375-1.671,1.375-2.945
			c0-1.235-0.367-2.208-1.102-2.916c-0.735-0.709-1.817-1.063-3.248-1.063c-5.188,0-7.782,2.997-7.782,8.992
			C605.188,454.262,607.782,457.266,612.97,457.266z"/>
	</g>
	<path d="M494.175,158.524c0,5.056-4.1,9.153-9.155,9.153c-5.056,0-9.154-4.097-9.154-9.153c0-5.055,4.098-9.156,9.154-9.156
		C490.076,149.368,494.175,153.469,494.175,158.524L494.175,158.524z M494.175,158.524"/>
	<g>
		<path d="M459.984,166.943h3.394v2.067h-10.416v-2.067h3.433v-6.983h-3.433v-2.067h3.433v-7.529h-3.433v-2.087h7.022v9.616h3.394
			v2.067h-3.394V166.943z M455.401,141.839c0-0.598,0.214-1.118,0.644-1.561c0.442-0.442,0.969-0.663,1.58-0.663
			c0.598,0,1.112,0.221,1.541,0.663c0.442,0.442,0.663,0.962,0.663,1.561c0,0.611-0.215,1.131-0.644,1.561
			c-0.429,0.429-0.949,0.644-1.56,0.644c-0.611,0-1.138-0.215-1.58-0.644C455.615,142.971,455.401,142.451,455.401,141.839z"/>
	</g>
	<g>
		<path d="M519.105,148.276h6.71v9.616h3.395v2.067h-3.395v6.983h3.395v2.067h-6.983v-3.667c-0.663,1.378-1.521,2.432-2.575,3.16
			c-1.053,0.715-2.275,1.073-3.667,1.073c-2.302,0-3.998-0.656-5.091-1.97c-1.079-1.3-1.619-3.349-1.619-6.145v-1.502h-3.237v-2.067
			h3.237v-7.529h-3.237v-2.087h6.846v9.616h9.344v-7.529h-3.121V148.276z M522.226,159.96h-9.344v0.39
			c0,2.523,0.312,4.252,0.937,5.188c0.611,0.937,1.71,1.405,3.297,1.405c1.664,0,2.932-0.611,3.804-1.834
			C521.764,163.914,522.2,162.197,522.226,159.96z"/>
	</g>
	<path d="M785.461,158.524c0,5.056-4.101,9.153-9.156,9.153s-9.153-4.097-9.153-9.153c0-5.055,4.098-9.156,9.153-9.156
		S785.461,153.469,785.461,158.524L785.461,158.524z M785.461,158.524"/>
	<g>
		<path d="M740.471,164.973c-0.689,1.521-1.57,2.669-2.643,3.443c-1.073,0.773-2.325,1.16-3.755,1.16
			c-2.172,0-3.791-0.673-4.857-2.019s-1.6-3.377-1.6-6.096v-11.118h-3.237v-2.067h6.826v12.776c0,2.12,0.312,3.628,0.937,4.525
			c0.624,0.897,1.658,1.346,3.102,1.346c1.6,0,2.818-0.605,3.657-1.814c0.839-1.209,1.258-2.971,1.258-5.286v-9.48h-3.12v-2.067
			h6.71v12.913c0,2.067,0.312,3.54,0.936,4.418c0.625,0.878,1.658,1.317,3.102,1.317c1.6,0,2.818-0.605,3.657-1.814
			c0.839-1.209,1.259-2.971,1.259-5.286v-9.48h-3.121v-2.067h6.71v18.686h3.433v2.048h-7.021v-3.687
			c-0.664,1.378-1.509,2.432-2.536,3.16c-1.027,0.729-2.191,1.092-3.491,1.092c-1.613,0-2.959-0.399-4.038-1.199
			S740.835,166.443,740.471,164.973z"/>
	</g>
	<g>
		<path d="M809.389,148.276h6.71v18.667h3.395v2.067h-6.983v-3.667c-0.663,1.378-1.521,2.428-2.575,3.15
			c-1.053,0.722-2.275,1.083-3.667,1.083c-2.302,0-3.995-0.653-5.081-1.96c-1.086-1.307-1.629-3.358-1.629-6.154v-11.099h-3.237
			v-2.087h6.846v12.074c0,2.523,0.31,4.252,0.927,5.188c0.617,0.937,1.72,1.405,3.307,1.405c1.664,0,2.932-0.611,3.804-1.834
			c0.871-1.222,1.307-2.997,1.307-5.325v-9.421h-3.121V148.276z"/>
	</g>
</g>
</svg>
